<svg xmlns="http://www.w3.org/2000/svg" width="22.499" height="20.625"><defs><clipPath id="a"><path d="M22.5 20.625H0V1.875h4.688V0h1.875v1.875h3.75V0h1.875v1.875h3.75V0h1.877v1.875H22.5v18.75zM1.875 18.75h18.75v-15H1.875zM15 16.875v-3.75h3.75v3.75zm-5.624 0v-3.75h3.75v3.75zm-5.626 0v-3.75H7.5v3.75zM15 11.251V7.5h3.75v3.751zm-5.624 0V7.5h3.75v3.751zm-5.626 0V7.5H7.5v3.751z" fill="none"/></clipPath></defs><path data-name="Mask" d="M22.5 20.625H0V1.875h4.688V0h1.875v1.875h3.75V0h1.875v1.875h3.75V0h1.877v1.875H22.5v18.75zM1.875 18.75h18.75v-15H1.875zM15 16.875v-3.75h3.75v3.75zm-5.624 0v-3.75h3.75v3.75zm-5.626 0v-3.75H7.5v3.75zM15 11.251V7.5h3.75v3.751zm-5.624 0V7.5h3.75v3.751zm-5.626 0V7.5H7.5v3.751z" fill="none"/><g data-name="color" clip-path="url(#a)"><path data-name="color" d="M-3.75-5.625h30v30h-30z"/></g></svg>