<svg xmlns="http://www.w3.org/2000/svg" width="68.571" height="83.765"><path d="M29.854 33.144l-10.682-5.667 5.47 11.2a10.639 10.639 0 015.212-5.535m14.077 13.703l20.4-3.625-20.162-3.768a10.851 10.851 0 01.535 3.367 10.83 10.83 0 01-.773 4.026m-5.647-13.88L34.361 5.453l-3.65 27.326a10.216 10.216 0 017.573.186m5.648 5.834l5.622-11.1L38.9 33.254a10.648 10.648 0 015.032 5.545m-19.094 8.606L19 58.54l11.257-5.862a10.609 10.609 0 01-5.419-5.273m5.812 5.431l3.656 25.575 3.544-25.562a10.188 10.188 0 01-3.585.648 10.184 10.184 0 01-3.615-.661m7.834-.254l10.86 5.947-5.552-11.354a10.621 10.621 0 01-5.308 5.407" fill="#d0dce7"/><path d="M34.264 52.736a9.819 9.819 0 01-9.693-9.918 9.818 9.818 0 019.693-9.917 9.818 9.818 0 019.693 9.917 9.818 9.818 0 01-9.693 9.918zm.034-18.962l-7.772 13.969h15.473z" fill="#e7792b"/><path d="M40.725 46.982l-6.429-11.661-6.489 11.661z" fill="#0065a3"/><path d="M23.825 42.818a10.847 10.847 0 01.609-3.589L4.154 43.02l20.428 3.783a10.827 10.827 0 01-.757-3.985" fill="#d0dce7"/><path d="M0 0h68.571v83.765H0z" fill="none"/></svg>