<svg xmlns="http://www.w3.org/2000/svg" width="122" height="166"><defs><clipPath id="a"><path d="M0 0h11.235v11.2H0z" fill="none"/></clipPath></defs><path d="M51.568 31.664a1.342 1.342 0 101.346 1.341 1.346 1.346 0 00-1.346-1.341m.559-.728a2.142 2.142 0 01.711.342l.5-.335zm8.488-2.989l.364 4.654.363-4.654zm.906-5.124h-1.068l-.532 2.137.532 2.138h1.068l.53-2.138zm9.083 14.611a1.517 1.517 0 001.517-1.513 1.492 1.492 0 00-.526-1.132 2.134 2.134 0 01-1.191.361 2.14 2.14 0 01-.936-.217 1.482 1.482 0 00-.379.988 1.516 1.516 0 001.515 1.513m1.863-6.688a2.794 2.794 0 01-.551.175 4.826 4.826 0 01-.888.032 2.153 2.153 0 01.846.493 1.868 1.868 0 01.593-.7m-12.545 4.052a1.525 1.525 0 10.013-.015l-.013.015m.88 6.665h.368a43.746 43.746 0 006.935-.334l1.347-.55a60.683 60.683 0 00-8.429-.572 61.826 61.826 0 00-8.412.559l1.458.6a45.415 45.415 0 006.733.3m7.828-10.523l.5.335a2.144 2.144 0 01.713-.341zm-3.104 4.982a1.346 1.346 0 101.346-1.343 1.345 1.345 0 00-1.346 1.343M50.1 31.44a2.145 2.145 0 01.933-.51 7.171 7.171 0 01-1-.036 3.048 3.048 0 01-.525-.146 1.865 1.865 0 01.592.692m24.936 12.18a1.141 1.141 0 00.275-.749 2.128 2.128 0 01-.088-.468c-1.972.443-4.137.779-6.6 1.19-1.247.828-3.129 1.91-6.123 3.475l1.319-.121c4.836-.144 9.881-1.789 11.217-3.327m-23.519-6.366a1.516 1.516 0 001.565-1.462 1.48 1.48 0 00-.34-.994 2.138 2.138 0 01-1.174.35 2.147 2.147 0 01-1.178-.35 1.492 1.492 0 00-.339.894 1.517 1.517 0 001.466 1.562" fill="#fcd21f"/><path d="M57.205 84.664v-.012a13.191 13.191 0 017.483-.015q.5.144.984.327l-2.711-18-1.983-13.146-1.98 13.143h.018l-2.711 18.003c.293-.112.594-.21.9-.3" fill="#fffffe"/><path d="M60.988 39.286h.036a60.79 60.79 0 019.735.759l.694-.283v-1.688a2.311 2.311 0 01-2.816-.93 2.144 2.144 0 110-2.443 2.113 2.113 0 01.177-.246 2.136 2.136 0 01-.519-1 10.04 10.04 0 00-5.008 1.4 2.432 2.432 0 01.264 1.1 2.457 2.457 0 01-4.914 0 2.423 2.423 0 01.215-1 10.054 10.054 0 00-5.181-1.5 2.149 2.149 0 01-.345.782 2.322 2.322 0 01.378.612 2.144 2.144 0 11-.09 1.98 2.323 2.323 0 01-2.122 1.226 3.158 3.158 0 01-.978-.216v1.87l.788.322a61.866 61.866 0 019.685-.745" fill="#fcd21f"/><path d="M56.908 35.925a1.345 1.345 0 10-1.347 1.34 1.345 1.345 0 001.347-1.34m-8.733-12.741l.551 1.291c.356.095.711.2 1.068.327l.635-.627-.928-2.219zm21.691-.677l1.118 1.115.915-2.191-1.149-1.064zm3.371 1.969l.553-1.292-1.325-1.228-.928 2.218.637.63c.356-.123.711-.231 1.065-.328m-23.173-3.044l.916 2.19 1.118-1.115-.884-2.14zm1.217 2.91l.564 1.322c.185.09.37.18.555.278l.824-.713-.828-2zm-.42.867l-.133-.315-.185.184c.106.042.212.087.318.131m20.248 0c.106-.044.211-.089.317-.131h-.006l-.185-.184zm-4.989 1.688l.747.746h.007l.1-.073.9-2.132-.98-.854zm-4.386 6.69a2.453 2.453 0 011.136.673 10.88 10.88 0 015.4-1.529 2.132 2.132 0 01.351-.927l-2.38-1.583s4.594.149 5.519 0 1.081-.459 1.081-.459l-3.9-.848 6.527-4.14c-4.634.51-9.446 3.593-13.734 8.813m12.385-9.321c.234-.048.468-.097.7-.133l-.466-.427zm-8.594 4.431c.254-.213.511-.415.768-.614l-.429-.421z" fill="#fcd21f"/><path d="M70.404 34.348a1.342 1.342 0 10-1.348-1.343 1.345 1.345 0 001.348 1.343m-2.308-7.54c.265-.17.53-.334.8-.489l-.447-.381zm-.953-2.967l1.022.892.848-2.055-1.111-1.11zm1.597 1.388l.827.711c.183-.1.368-.187.551-.277l.565-1.325-1.116-1.109zM91.55 95.35l5.165.984c-.705-3.556-1.679-6.623-2.528-7.329a4.823 4.823 0 01-3.029-.9l-.021.5c-.41 0-.827-.014-1.241-.044.734 2.664 1.308 5.054 1.654 6.789m-.59 12.516c.154-.774.426-5.935.407-7.818l-4.465.815c-.083 1.424-.358 4.085-.358 4.085.452 2.239 2.413 7.885 2.623 8.494a17.519 17.519 0 001.793-5.576m2.646 9.492c.029-.025.06-.051.087-.072a9.317 9.317 0 012.936-1.5c.181-.621.336-1.272.472-1.94a44.756 44.756 0 00.16-14.287l-.084-.573-5.086.93c.034 1.724-.083 3.754-.261 6.053a28.569 28.569 0 00-.227 3.071 42.991 42.991 0 001.688 7.239c.1.315.2.687.313 1.08m-4.963-3.248c-.281-.825-1.039-3-1.151-3.322a23.6 23.6 0 00-7.561-1.834c.162.065.56.23.6.245a28.744 28.744 0 018.115 4.91m-9.116-11.898l-4.96.907 2.386 4.746c1.531-.553 2.904-2.453 2.574-5.653m22.607-28.441c-.196-1.707-5.944-6.851-5.946-6.851-.39.668-1.827.7-3.379.355.2.208.7.814.674.75 2.083 2.145 3.97 4.569 4.347 6.012 1.761.578 3.428 1.031 4 .621a1.025 1.025 0 00.307-.887M83.23 108.593a11.138 11.138 0 002.633-3.81c.124-1.119.237-2.565.3-3.784l-5.182.947a37.234 37.234 0 012.249 6.647m8.089-46.178a23.716 23.716 0 013.875 2.687c.659.224 3.54.652 4.175-.012a15.484 15.484 0 00-6.344-2.899 6.177 6.177 0 00-1.706.224m16.394 25.954c-.052-.149-.4-1.063-.555-1.483-1.867-4.955-3.497-8.942-5.851-11.361a10.874 10.874 0 01-3.538-.747 1.14 1.14 0 01-.48.575 2.82 2.82 0 01-2.028.135 13.827 13.827 0 013.287 4.326 29.612 29.612 0 012.521 6.849 8.5 8.5 0 006.643 1.707M96.908 74.739a.457.457 0 00.219-.434v-.1c-.312-1.17-1.947-3.217-3.759-5.141a9.141 9.141 0 01-4.241-.2c.382.478 3.4 4.069 4.188 5.143 1.833.9 3.125 1.021 3.593.733m-.999 13.028c.062.312.112 1.261.112 1.261h-.875c.861 1.283 1.721 4.251 2.337 7.45l5.38 1.025c-.571-2.53-1.637-6.365-3.128-8.556a10.615 10.615 0 01-3.826-1.18M57.82 53.393c-.754-.377-1.53-.764-2.293-1.057v5.632c.293.489 2.439 3.881 3.154 4.882l1.267-8.453a98.945 98.945 0 01-2.128-1" fill="#fcd21f"/><path d="M100.359 87.067c-.479-2.134-2.388-8.982-6.977-12.134a1.443 1.443 0 01-.743.97 2.283 2.283 0 01-1.795.03 10.026 10.026 0 01-1.4-.74c.236.228.766.657.932.831a23.318 23.318 0 015.268 10.498l.069.306a9.2 9.2 0 004.929 1.489c-.044-.108-.169-.7-.279-1.25m3.009 13.093s-.171-1.036-.418-2.23l-5.068.927.061.358c3.536 3.995 5.8 3.574 5.8 3.574 0-.5-.377-2.628-.377-2.628M71.605 81.645l3.223-1.644-3.141-2.3zM99.946 65.51c-.829.75-2.047.67-3.636.476a30.5 30.5 0 016.451 7.423c1.5.745 2.582 1.272 3.157 1.037a.905.905 0 00.591-.8c-.399-2.415-3.238-5.705-6.509-8.151.036-.041-.006-.025-.054.015m3.602 42.887v-.914c-.028-1.831-.124-2.717-.238-3.979-1.706-.263-2.77-.908-5.218-3.163a45.63 45.63 0 01-.16 13.075 32.653 32.653 0 01-.454 2.153 9.355 9.355 0 011.453-.18l.5-2.125.172-.209.627-.766-.908.335-.263.1.05-.275.718-3.971.05-.276.213.185.738.64-.311-.931-.082-.255.266.049z" fill="#fcd21f"/><path d="M73.279 92.358l7.489-14.307s-14.438 7.177-14.4 7.2a13.8 13.8 0 016.911 7.112" fill="#fffffe"/><path d="M66.445 57.968v-5.632c-.762.293-1.538.68-2.293 1.057-.545.271-1.569.743-2.13.993l1.267 8.45c.713-1 2.865-4.377 3.157-4.866m.218 26.178l3.3-1.666-1.865-2.966z" fill="#fcd21f"/><path d="M99.277 97.732s-25.928-5.046-25.914-5.006a14.882 14.882 0 01.886 4.667 13.186 13.186 0 01-.9 4.917c-.007.016 25.928-4.578 25.928-4.578" fill="#fffffe"/><path d="M77.095 87.252a2.855 2.855 0 001.911.406 12.224 12.224 0 00-.663-2.816zm9.627 7.178l4.063.772c-.352-1.717-.931-4.089-1.661-6.724a5.889 5.889 0 01-2.362-.776l.075.616s-1.086.091-1.342.135a35.267 35.267 0 011.227 5.977m-7.88-10.553c.32.941.659 2.2.875 3.04a3.426 3.426 0 003 .706 32.549 32.549 0 00-2.412-6.573zm-4.267 8.24l4.351.83a20.145 20.145 0 00-.628-4.548 6.969 6.969 0 01-1.563-.452zm5.086.969l2.5.475c-.087-1.173-.528-4.494-.669-5.186a3.27 3.27 0 01-1.768-.733c.014.263.016.6.016.6a2.116 2.116 0 01-.692.139 22.388 22.388 0 01.613 4.705m15.581-4.777a13.15 13.15 0 00-.265-1.821c-1.47-5.554-3.393-8.436-5.83-10.816-.554.562-1.864.53-2.832.381a.583.583 0 01-.493.392c2.762 2.535 3.94 6.127 5.119 10.237.508 1.522 2.538 1.621 4.3 1.627M53.081 26.32c.266.155.53.319.8.489l-.364-.87zm-5.93-2.187c.233.036.467.085.7.133l-.239-.56zm-15.883 97.966a4.507 4.507 0 001.743-1.114c1.478-1.518 2.218-3.442 3.241-5.227a25.693 25.693 0 013.409-4.952c-3.648 1.8-6.693 3.687-8.493 6.971-.26.455-.824 1.629-1.26 2.229a21.939 21.939 0 01-1.84 1.923 5.225 5.225 0 00.907.3 5.549 5.549 0 002.293-.13m10.776-13.144a23.593 23.593 0 00-7.561 1.834c-.112.32-.871 2.497-1.151 3.322 1.888-2.011 5.2-3.684 8.116-4.911.036-.015.434-.18.6-.245m-11.447-8.907c-.025 1.83.254 7.035.411 7.818a17.531 17.531 0 001.789 5.577c.21-.609 2.171-6.254 2.623-8.494 0 0-.274-2.669-.356-4.083zm16.805 3.071l-5.02-.918c-.353 3.243 1.089 5.124 2.633 5.681zM29.405 119.53c.324-.522.92-1.737 1.24-2.288a10.392 10.392 0 011.926-2.528 8.821 8.821 0 01-.949-1.921 9.645 9.645 0 00-2.453 4.289c-.2.639-1.274 4-1.274 4a8.9 8.9 0 001.51-1.552" fill="#fcd21f"/><path d="M47.727 97.392a14.874 14.874 0 01.884-4.668c.014-.04-25.916 5.007-25.916 5.007s25.936 4.593 25.929 4.579a13.186 13.186 0 01-.9-4.917" fill="#fffffe"/><path d="M42.968 87.657a2.852 2.852 0 001.911-.406l-1.248-2.41a12.166 12.166 0 00-.663 2.816m-5.751.888a33.9 33.9 0 00-1.208 5.738l3.06-.582c.084-1.239.606-4.682.665-5.274a6.5 6.5 0 01-.933-.137l.015-.4a4.16 4.16 0 01-1.6.655m10.182 3.572l-2.159-4.17a7 7 0 01-1.563.452 20.066 20.066 0 00-.618 4.548zm-8.654 16.48a37.125 37.125 0 012.244-6.651l-5.188-.949c.068 1.22.188 2.666.311 3.786a11.131 11.131 0 002.633 3.814m-17.409-20.28a9.2 9.2 0 004.929-1.489l.071-.306a23.308 23.308 0 015.265-10.5c.165-.174.7-.6.931-.831a10.113 10.113 0 01-1.396.742 2.283 2.283 0 01-1.8-.031 1.439 1.439 0 01-.743-.969c-4.59 3.152-6.498 10-6.978 12.134-.11.546-.236 1.142-.279 1.25m17.923-.695a3.428 3.428 0 003-.706c.215-.835.554-2.1.874-3.04l-1.465-2.826a32.616 32.616 0 00-2.409 6.572m-6.411-18.758a9.134 9.134 0 01-4.242.2c-1.812 1.924-3.447 3.971-3.758 5.142v.1a.456.456 0 00.218.435c.468.289 1.76.171 3.593-.732.789-1.076 3.806-4.667 4.189-5.145m.003 19.614c-.736 2.659-1.33 4.995-1.684 6.723l4.07-.775a34.867 34.867 0 011.243-5.974c-.257-.044-1.343-.135-1.343-.135l.074-.616a5.885 5.885 0 01-2.36.777m49.021 38.253a4.335 4.335 0 002.176-.769c.966-.762 1.672-2.329 1.058-4.56-.796-2.897-3.603-6.437-5.523-8.271a66.591 66.591 0 013.518 6.95 5.967 5.967 0 01-.028 3.576 19.321 19.321 0 01-1.2 3.078m8.854-8.958c-1.807-3.284-4.766-5.176-8.415-6.971a25.566 25.566 0 013.407 4.952c1.025 1.785 1.683 3.709 3.163 5.226a4.464 4.464 0 001.518 1.029c.012-.042.024-.087.037-.128a12.785 12.785 0 011.212-2.4c-.357-.609-.727-1.362-.922-1.707m5.55 12.32c.845-.167.9-1.579.368-2.687-.365-.759-1.485-2.426-1.485-2.426l-4.317-1.043a9.118 9.118 0 00-.036.78 10.022 10.022 0 00.435 2.691c1.773-.04 4.19 2.853 5.035 2.685m4.989-21.507l.656 2.064-1.603-1.372-.464 2.563 1.982-.7-1.382 1.779 2.671.481-.662-2.143 1.6 1.365.467-2.578-1.976.721 1.329-1.708zm6.988-20.803a7.211 7.211 0 01.281 1.16s-1.17.2-1.553.222c3.765 5.118 4.653 10.792 5.38 13.536a5.339 5.339 0 001.863 2.612 11.248 11.248 0 005.113 2.77 9.635 9.635 0 001.3.212 56.307 56.307 0 00-1.683-9.92c-.072-.265-.139-.535-.213-.792a47.306 47.306 0 00-2.52-6.778c-.02.012-.609-1.139-.885-1.7a10.092 10.092 0 01-2.223.278 8.529 8.529 0 01-4.86-1.6m-92.791-14.14a.9.9 0 00.591.8c.575.235 1.661-.291 3.158-1.037a30.493 30.493 0 016.451-7.425c-1.587.194-2.806.274-3.636-.476-.048-.04-.09-.056-.053-.016-3.27 2.447-6.111 5.737-6.511 8.154m31.684 6.353l3.223 1.643-.084-3.943zm4.864 2.482l3.3 1.666-1.389-4.633zM24.785 98.985c-.021.154-.06.472-.073.575a44.76 44.76 0 00.159 14.287 22.122 22.122 0 00.649 2.538 30.509 30.509 0 001.954 4.016c.26-.905.749-2.925 1.126-4.124a42.877 42.877 0 001.771-7.238 28.551 28.551 0 00-.227-3.07c-.179-2.322-.3-4.311-.259-6.054z" fill="#fcd21f"/><path d="M48.694 92.358a13.8 13.8 0 016.908-7.107c.038-.021-14.4-7.2-14.4-7.2z" fill="#fffffe"/><path d="M42.31 113.132c-1.92 1.834-4.727 5.374-5.523 8.274-.614 2.232.092 3.8 1.058 4.561a4.334 4.334 0 002.176.769 19.5 19.5 0 01-1.2-3.078 5.983 5.983 0 01-.027-3.576 66.627 66.627 0 013.516-6.95m-28.447-9.02c.325-.165.315-.553.271-.837a7.77 7.77 0 00-.4-1.412 6.76 6.76 0 00-1.978-2.6 2.658 2.658 0 00-.73-.365 1.093 1.093 0 00-.68.042l-.037.016a.655.655 0 00-.347.327c-.089.172-.2.773-.344.9a.33.33 0 01-.1.069c-.36.145-.364-.993-.369-1.014a4.244 4.244 0 00.666-.449 2.237 2.237 0 00.458-.871c-.024-.408-.58-.409-.971-.251l-.016.006a.366.366 0 00-.392-.161l-.033.01a1.871 1.871 0 00-.5.48.914.914 0 00-1.048-1.359l-.355-.825-.5.205-.5.2.319.837a.912.912 0 00.2 1.7 1.865 1.865 0 00-.7.005.205.205 0 00-.031.015.365.365 0 00-.169.388l-.016.005c-.388.159-.788.545-.518.855a2.244 2.244 0 00.944.312 3.983 3.983 0 00.792-.141c.011.019.8.84.443.986a.364.364 0 01-.122.02c-.194.006-.692-.348-.877-.409a.66.66 0 00-.478.005l-.038.017a1.084 1.084 0 00-.517.442 2.613 2.613 0 00-.269.768 6.735 6.735 0 00.39 3.237 7.884 7.884 0 00.7 1.292c.167.234.431.519.779.411l.035-.012a8.875 8.875 0 001.42-1.1 5.571 5.571 0 001.893 1.332 12.138 12.138 0 001.478-.6 5.519 5.519 0 00.431-2.269 8.938 8.938 0 001.786-.2l.034-.015m17.678-41.306a16.891 16.891 0 00-3.6 2.3s-1.538 1.458-1.538 1.46c.163.289 1.995.4 4.288-.5.827-.767 1.562-1.4 2.085-1.791a3.237 3.237 0 00-.518-.869 2.933 2.933 0 00-.717-.6" fill="#fcd21f"/><path d="M55.876 109.667a13.518 13.518 0 01-5.115-3.81 13.206 13.206 0 01-1.896-3.025c-.021-.049-2.053 3.891-3.981 7.648l-3.708 6.679 10.151-5.174z" fill="#fffffe"/><path d="M60.967 109.739a12.014 12.014 0 01-5.465-1.306 12.7 12.7 0 01-4.217-3.457 12.351 12.351 0 016.207-19.414v-.006a12.278 12.278 0 0110.515 1.71 12.414 12.414 0 012.791 2.682 12.314 12.314 0 01-.112 15.023 12.492 12.492 0 01-4.226 3.477 12.153 12.153 0 01-5.493 1.291zm.042-23.6l-9.886 17.384h19.684z" fill="#e7792b"/><path d="M35.402 123.709a21.676 21.676 0 017.875-12.371l.577-1.117.719-1.437c-.9.312-1.825.653-2.746 1.038l-.029.013a19.349 19.349 0 00-4.917 6.283 23.955 23.955 0 01-3.528 5.437 6.164 6.164 0 01-1.611 1.05l-.526 3.664s3.881-1.115 4.186-2.56" fill="#fcd21f"/><path d="M61.006 88.061l-8.254 14.517h16.433z" fill="#0065a3"/><path d="M12.923 108.489l5.823 10.745a47.512 47.512 0 01-1.041-10.524c0-.383.01-.76.025-1.122.066-1.5.093-2.743.226-4.155l-.478-.083c.025-.382.127-1.194.122-1.189a12.969 12.969 0 01-2.882 2.219 1.32 1.32 0 01-.491.44l-.1.044a6.962 6.962 0 01-1.365.197 5.3 5.3 0 01-.326 1.756l.088.99c.155.281.279.48.4.682m9.269 16.522l2.53-8.67c-.254-.906-.487-1.9-.683-2.925a45.6 45.6 0 01-.159-13.075c-2.449 2.255-3.513 2.9-5.215 3.163-.112 1.262-.21 2.147-.238 3.979-.005.367-.005.743-.005 1.12-.006 5 .586 10.2 2.024 13.669zM56.1 27.662l-.421.42c.256.2.512.4.767.615zm-2.009-2.225l.895 2.126c.036.026.074.05.112.079l.748-.746-.775-2.312zM40.48 88.375c-.14.693-.578 4.011-.663 5.185l2.5-.476a22.571 22.571 0 01.607-4.702 2.15 2.15 0 01-.691-.14s0-.34.016-.6a3.264 3.264 0 01-1.769.733M12.273 98.661l.02.014a7.439 7.439 0 012.18 2.892 8.562 8.562 0 01.448 1.586c.011.075.012.14.017.209a16.043 16.043 0 002.8-2.347 35.229 35.229 0 013.623-11.982c-.157.006-.924.008-.924.008s.127-.994.23-1.366a8.769 8.769 0 01-4.84 1.515 29.6 29.6 0 00-4.294 9.051 2.89 2.89 0 01.74.42m41.061-55.067c-2.465-.411-4.613-.748-6.584-1.19a2.163 2.163 0 01-.108.52.445.445 0 010 .054.962.962 0 00.311.642c1.344 1.539 6.713 3.013 11.189 3.322l1.319.126a49.915 49.915 0 01-6.127-3.474m-.309-14.68l-3.9.847a2.434 2.434 0 001.081.459c.719.141 5.52 0 5.52 0l-2.376 1.585a2.129 2.129 0 01.349.925 10.881 10.881 0 015.547 1.614 2.468 2.468 0 011.026-.7l.009-.006c-4.297-5.253-9.131-8.352-13.778-8.864zM89.71 63.398a3.248 3.248 0 00-.518.865c.524.393 1.259 1.025 2.086 1.792 2.292.9 4.124.792 4.287.5l-1.539-1.463a16.936 16.936 0 00-3.598-2.294 2.928 2.928 0 00-.718.6M18.6 100.16s-.377 2.124-.377 2.628c0 0 2.266.421 5.8-3.574l.054-.359-5.06-.925c-.247 1.194-.417 2.23-.417 2.23m17.522-13.313l-.176.886a2.757 2.757 0 002.676-.67 49.386 49.386 0 012.595-6.883l-1.188-2.293a43.832 43.832 0 00-3.907 8.96M14.26 88.369a8.5 8.5 0 006.644-1.707 29.558 29.558 0 012.521-6.848 13.815 13.815 0 013.287-4.326 2.816 2.816 0 01-2.027-.135 1.138 1.138 0 01-.481-.575 10.877 10.877 0 01-3.544.747c-2.351 2.419-3.977 6.406-5.844 11.361-.16.42-.5 1.334-.556 1.483m22.222-12.481a2.4 2.4 0 001.582.131 28.585 28.585 0 01-1.015-.708c-.104.089-.414.439-.567.577M24.454 96.482c.618-3.244 1.5-6.158 2.373-7.453h-.876s.051-.949.113-1.261a10.615 10.615 0 01-3.827 1.18c-1.49 2.191-2.553 6.02-3.124 8.55zm6.362-8.378a4.825 4.825 0 01-3.03.9c-.857.715-1.83 3.72-2.538 7.326l5.183-.986c.346-1.747.906-4.1 1.646-6.784-.413.031-.829.044-1.241.044zm5.335-11.659a.582.582 0 01-.493-.393c-.968.149-2.278.181-2.827-.381-2.442 2.38-4.365 5.262-5.836 10.816a13.141 13.141 0 00-.264 1.821c1.762-.006 3.793-.105 4.3-1.627 1.18-4.11 2.358-7.701 5.12-10.236" fill="#fcd21f"/><path d="M38.838 76.642a6.143 6.143 0 01-2.033.083c-2.72 2.431-3.808 5.732-5.067 10.102a6.319 6.319 0 00-.2 1.052 5.577 5.577 0 003.9-1.283 37.761 37.761 0 014.178-9.508l-.014-.027-.764-.419M22.604 65.091c.634.664 3.515.237 4.173.012a23.747 23.747 0 013.877-2.688 6.158 6.158 0 00-1.707-.224 15.476 15.476 0 00-6.343 2.9m11.854 7.761a8.611 8.611 0 00-1.309 1.942c-.219.482.751.717 1 .758 0 0 1.485.153 1.975-.313.166-.151.3-.309.38-.374-.667-.551-1.322-1.338-2.046-2.013m18.495-50.174l.849 2.055 1.022-.892-.759-2.273zm-32.807 51.98c.568.409 2.236-.043 4-.621.373-1.443 2.26-3.867 4.343-6.017-.024.064.476-.542.675-.749-1.554.349-2.989.317-3.38-.351-.002 0-5.75 5.144-5.95 6.851a1.027 1.027 0 00.307.887m9.22-6.313c.092.256 2.63.256 3.678-.313a8.992 8.992 0 00-.035-3.034c-.513.4-3.08 2.77-3.643 3.347m-.109 6.155c-.172.495.324.795.586.849.4.083 1.084.206 2.754-1.014.32-.47.952-1.229 1.415-1.994a6.37 6.37 0 01-1.19-1.953 19.242 19.242 0 00-3.565 4.112m53.647 19.202l3.091.588a34.328 34.328 0 00-1.234-5.745 4.167 4.167 0 01-1.598-.655l.014.4a6.516 6.516 0 01-.933.137c.06.6.584 4.066.66 5.275M56.917 74.886c-.616.683-2.883 2.922-2.836 2.872l1.639 5.161zM14.163 86.571c1.814-4.816 3.421-8.722 5.713-11.246a1.487 1.487 0 01-.153-.082 1.482 1.482 0 01-.569-1c-1.516.75-2.562 1.2-3.375.868a1.723 1.723 0 01-.879-.923 9.292 9.292 0 00-.358.2 5.684 5.684 0 01-2.856.893l-.011.019a35.758 35.758 0 00-4.846 13.116 8.034 8.034 0 007.334-1.845m-7.691 21.206a1.351 1.351 0 01-.592-.233 12.812 12.812 0 01-3.338 1.315c-.323.071-1.241.163-1.257.164a79.297 79.297 0 00-.22 5.942c-.626 10.046 2.012 19.47 4.561 26.779l2.22-10.5h-.007c-1.552-5.687-1.977-12.979-1.367-23.467" fill="#fcd21f"/><path d="M5.363 107.021v-.006a8.6 8.6 0 01-.786-1.451 7.44 7.44 0 01-.448-3.587v-.026a3.279 3.279 0 01.357-1.063l.01-.019.011-.017a1.6 1.6 0 01.1-.148 1.352 1.352 0 01-.132-.117l-.018-.019-.022-.023a1.119 1.119 0 01-.246-1 1.554 1.554 0 01.672-.888 1.123 1.123 0 01.192-.315 1.791 1.791 0 01-.08-.448 1.591 1.591 0 01.362-1.086l-.115-.3-.285-.737.732-.289.489-.194.5-.205.724-.295.311.721.129.3a1.6 1.6 0 011.008.53 1.757 1.757 0 01.256.376 1.22 1.22 0 01.359.093 1.578 1.578 0 011.1.172 1.1 1.1 0 01.419.493 27.4 27.4 0 014.03-8.3c-.383-.026-1.552-.222-1.552-.222a7.211 7.211 0 01.281-1.163 8.536 8.536 0 01-4.86 1.6 10.1 10.1 0 01-2.226-.277c-.277.556-.865 1.708-.885 1.7a47.436 47.436 0 00-2.515 6.777c-.073.256-.141.526-.213.792a56.407 56.407 0 00-1.687 9.92 9.719 9.719 0 001.3-.212 13.881 13.881 0 002.728-1.066M32.814 62.93c1.805 2 .5 6.153.691 7.238.328 1.506 2.2 3.085 3.721 4.361a24 24 0 003.977 2.552l5.02 2.448 4.924-3.673v6.184l.277.143 2.658-4.427-.529-8.557a12.5 12.5 0 01-5.541 5.972 13.67 13.67 0 01-3.027.907s3.442-5.454 3.627-5.8a26.336 26.336 0 01-4.959 2.029 4.381 4.381 0 01-2.322-.064 8.839 8.839 0 01-3.193-2.34 8.423 8.423 0 01-1.83-3.622 8.531 8.531 0 00-2.379-5.141 5.608 5.608 0 00-2.762-1.392 8.417 8.417 0 00-3.114-.045 4.447 4.447 0 001.028 1.768 4.883 4.883 0 013.733 1.459M14.191 73.754c.18-.1.373-.206.575-.311.439-2.349 2.863-5.362 5.822-7.787a3.246 3.246 0 01-2.965-.732c-2.869 2.134-6.357 5.462-7.077 9.394a1.665 1.665 0 00.889.248 5.017 5.017 0 002.756-.812m7.73-9.147l.211-.07a17.455 17.455 0 016.102-2.953 4.689 4.689 0 01-.883-1.72 32.825 32.825 0 00-9.13 4.634c.738.734 2.336.563 3.7.108m-9.956 49.045l-1.948-5.662a.8.8 0 01-.126-.03 4.027 4.027 0 01-1.246-.695c-.167-.124-.308-.224-.429-.324a5.836 5.836 0 01-1.013.714c-.879 12.116.356 21.046 1.335 23.345 1 2.365 2.676 5.364 2.676 5.364l1.6-7.591.663-3.143a33.684 33.684 0 01-1.502-10.589l-.009-1.39m15.395 24.1a1 1 0 00.232-.679 14.309 14.309 0 01-6.22 1.442.387.387 0 00.227.45 9.512 9.512 0 003.179 0 5.03 5.03 0 002.582-1.213m.399-1.638c.17-.749-.19-.849-.19-.849a28 28 0 01-5.859.6 3.3 3.3 0 01-1.37-.3 2.336 2.336 0 00-.348 1.457c.164.611 1.008.776 1.008.776 2.923-.011 6.594-.941 6.759-1.684m-2.785 3.539a14.618 14.618 0 00.946 3.52c.551.934 3.165 2.36 3.642 2.129.234-.113.438-.221.589-.293.408-.192.327-2.951-.2-3.958a12.437 12.437 0 00-2.377-2.525 7.8 7.8 0 01-2.6 1.127m-9.524-15.962l-2.7-7.868c.038 1.565.167 3.324.351 4.831a20.838 20.838 0 001.049 4.712l2.063 4.115s.4-1.52.371-1.592c-.286-.8-1.132-4.2-1.132-4.2m9.319 8.546a15.8 15.8 0 00-2.624-1.856c-.342.027-.935 1.2-.935 1.2a11.338 11.338 0 002.617 1.043 1.348 1.348 0 00.942-.387m-3.264-4.456a3.582 3.582 0 00.356-2.031c-.162-.453-1.8-2.828-2.369-3.714-.462-.729-5.911-10.862-7.88-14.529-.109.048-.788.321-.919.368 1.375 3.926 5.224 14.932 5.4 15.622.22.841.9 3.88 1.149 4.275a3.321 3.321 0 001.929 1.035 3.581 3.581 0 002.334-1.022" fill="#fcd21f"/><path d="M26.989 134.641c.551-.238.268-1.865-.372-1.889h-1.24a2.193 2.193 0 01-1.512.659 10.812 10.812 0 01-3.134-1.245l-.938.531s-.68.933-.479 1.446 1.785 1.008 2.1 1.005a30.766 30.766 0 005.574-.507m.831-.847a12.065 12.065 0 011.157-1.043h-1.518a1.391 1.391 0 01.361 1.043M48.435 33.3a1.047 1.047 0 10-1.05-1.046 1.051 1.051 0 001.05 1.046m.764-12.054l-1.1-2.637a6.41 6.41 0 00-.763.7 6.273 6.273 0 00-.537.673l1.074 2.5zm.346 12.485a1.847 1.847 0 01-1.109.373 1.845 1.845 0 01-.759-.164c.46.784.964 1.536 1.489 2.257a2.9 2.9 0 01.194.25 2.278 2.278 0 01.449-2.21 2.183 2.183 0 01-.264-.506m-2.924-1.864a1.854 1.854 0 01.433-.847l-1.261-1.674a14.269 14.269 0 00.828 2.521m.688-8.865l-.967-2.251a8.741 8.741 0 00-.856 3.24c.24.007.48.013.721.032zm-2.105 47.732a9.226 9.226 0 004.116-1.725l1.131-.752s-3.131 5.624-3.853 6.712c3.009-.962 5.465-3.647 6.973-7.664l.707-1.547.507 10.1c.762-.79 1.6-1.533 2.294-2.317l.9-6.024.519-3.437c-.844-1.192-2.923-4.613-3.008-4.758-.208 3.331-1.273 5.679-3.239 7.153l-.816.612a12.563 12.563 0 00.438-4.454 31.843 31.843 0 00-.433-3.139c-.6 3.18-1.813 5.865-4.025 6.572a9.265 9.265 0 01-1.047 1.428 10.89 10.89 0 01-4.27 2.593 7.313 7.313 0 003.106.647m1.181-41.804l1.248 1.657a1.838 1.838 0 01.8-.185c.014 0-.858-.971-.858-.971l3.547-.878-5.684-3.6c-.005.133-.005.264-.005.4l3.639 2.9z" fill="#fcd21f"/><path d="M45.474 26.311c.011.165.014.323.029.492a11.449 11.449 0 00.11 1.576l1.868-.468zm4.002 29.44a19.751 19.751 0 00-.451-4.583l.662.329a13.088 13.088 0 015.116 5.151v-5.326l.477.157a22.6 22.6 0 012.863 1.267q.429.214.867.426c-.888-1.067-3.787-5.962-3.787-5.962h.025c-3.518-.523-7.585-1.551-8.9-3.06a2.189 2.189 0 01-.244-.352 2.974 2.974 0 01-1.833.864 12.025 12.025 0 001.2 3.873l.038.077v1.84l.1.144c.019.025.037.052.055.078.9 1.256 1.647 2.358 1.125 3.628a14.483 14.483 0 011.652 4.858 7.124 7.124 0 001.036-3.409" fill="#fcd21f"/><path d="M54.801 58.151a14.067 14.067 0 00-4.78-5.642 13.9 13.9 0 01.168 3.682 6.63 6.63 0 01-1.628 3.953 12.194 12.194 0 01-.747 5c1.94-1.008 2.717-4.174 3.221-7.624.007-.043.2-1.871.2-1.914 0 0 1.148 4.619 1.323 6.559a14.8 14.8 0 01.012 3.066c1.484-1.539 2.214-3.869 2.226-7.079M43.889 43.966a2.008 2.008 0 002.147-1.731l-4.757-1.3c.69 1.756 1.766 3.031 2.61 3.031m45.044 24.065c1.049.569 3.586.569 3.679.313-.564-.577-3.13-2.946-3.643-3.346a9.029 9.029 0 00-.036 3.033M44.781 48.783a12.481 12.481 0 01-1.236-4.14c-1.3-.272-2.578-2.243-3.213-4.039a21.428 21.428 0 01-3.111-1.361l7.56 10.228zm-1.979-.772l-6.499-8.793s-1.5-.547-4.159.517c-2.609 1.043-2.937 4.037-1.99 6.314a2.23 2.23 0 01.463-.671 2.6 2.6 0 012.042-.73 9.228 9.228 0 014.049 1.165 14.3 14.3 0 001.643.711s3.344 1.054 4.451 1.487" fill="#fcd21f"/><path d="M41.428 48.272c-.89-.261-2.921-.931-2.921-.931-.473.451-6.958.689-8.7.436a18.142 18.142 0 01-5.044-1.942c2.1 3.3 5.713 4.99 10.758 5.048.7-2 3.183-2.671 5.908-2.611m14.645-5.613c-.1-.033-.208-.071-.319-.111-4.031-1.417-15.238-6.422-16.211-6.503-1-.078-1.977 1.523-2.12 2.484 2.826 1.6 6.946 2.872 14.366 4.144a11.717 11.717 0 004.284-.014m14.472 70.248l-4.081-2.187-.419 2.962-.117.808c6.272 1.131 9.573 4.27 9.892 7a11.056 11.056 0 011.811.184c-.046-1.177-1.51-4.819-2.137-6.089zm32.945 16.483c.071-.855-1.908-2.857-1.908-2.857l-1.8-.434a5.451 5.451 0 01.809 2.44 8.087 8.087 0 01-.409 2.525c.863-.1 3.233-.82 3.3-1.674" fill="#fcd21f"/><path d="M102.114 126.3s2.284 2.21 2.1 3.129-1.048 1.539-2.509 2a11.517 11.517 0 01-2.366.4 15.2 15.2 0 00.6-3.233 5.546 5.546 0 00-1.329-3.113 3.738 3.738 0 00-2.69-.62 9.829 9.829 0 011.627 2.781c.326 1.4.084 2.8-.928 3.167s-4.251-2.751-5.157-2.631a1.2 1.2 0 00-.731.382h.039a1.47 1.47 0 00-.236.265 1.844 1.844 0 00-.19.428.487.487 0 00-.014.048c-2.138.084-4.363.087-4.722-.227-.656-.573.216-1.894.754-2.491a7.107 7.107 0 011.053-.941 2.945 2.945 0 01-1.506-1.5 3.754 3.754 0 01-1.61 2.486 4.166 4.166 0 01-2.849.894s-.711 2.084-.799 2.693a1.324 1.324 0 001 1.5c.685.076 5.568-1.029 6.964-.87 1.253.143 9.4 3.626 11.288 3.577a10.929 10.929 0 004.005-1.406c.774-.572 2.345-2.013 2.28-3.173a6.091 6.091 0 00-1.28-2.65c-.345-.645-1.92-.973-2.793-.894m-19.484-4.492a5.577 5.577 0 00-.965-3.083l-5.135-2.617a23.369 23.369 0 011.833 5.738 5.014 5.014 0 012.261 1.368 4.108 4.108 0 01.914 2.305 7.682 7.682 0 001.092-3.711m-4.985 14.08a46.516 46.516 0 00-5.466-5.143c-1.96-1.806-3.818-3.516-5.565-5.006l-.122 1.73c4.941 3.109 9.893 10.955 10.058 22.2 1.3-2.3 2.815-4.8 2.847-7.918a10.9 10.9 0 00-1.752-5.866" fill="#fcd21f"/><path d="M81.794 137.83a3.585 3.585 0 01-2.785-.783c2.711 6.143-.258 10.463-1.907 13.084a5.787 5.787 0 003.322-1.612c1.4-1.526 1.953-3.978 1.652-7.289l-.024-.246.223-.11c1.38-.586 3.176-1.961 3.227-3.727a5.873 5.873 0 00-.243-1.9c-.436 1.8-2.683 2.533-3.465 2.583" fill="#fcd21f"/><path d="M66.678 124.845c1.874 1.577 3.876 3.418 5.994 5.372 2.047 1.89 4.27 3.844 6.384 6.094 3.083 2.691 5.9-.844 5.82-1.667a3.254 3.254 0 01-2.439.668l-.087-.012c-1.674-.416-3.071-1.864-4.3-3.143a14.553 14.553 0 00-2.027-1.867c-3.809 0-8.676-6.877-9.096-8.968z" fill="#fcd21f"/><path d="M65.817 115.266l-.308 2.209-2.924 20.651c3.18 6.668 4.865 14.729-1.168 23.89v2.482c.035-.037.073-.077.111-.121l.178-.191c.123-.135.262-.284.411-.444.508-.548 1.12-1.215 1.536-1.77 1.513-2.017 1.864-2.3 2.229-2.956 2.443-6.742 4.253-14.772-.64-23.323l-.054-.1 1.319-18.645.61 1.648c.518 1.2 1.633 3.213 2.861 3.585a3.2 3.2 0 00.454.1v.007a7.232 7.232 0 002.677-.4 10.908 10.908 0 011.972-.39c-.414-3.332-4.796-5.387-9.264-6.232m54.871-6.243c-.016 0-.935-.093-1.258-.164a13.312 13.312 0 01-3.965-1.681c.662 10.812.25 18.272-1.331 24.063h-.007l2.22 10.5c2.548-7.305 5.187-16.73 4.56-26.776 0-2.131-.082-4.1-.219-5.942M57.913 10.598h6.136l-2.375-4.292 4.165 2.457V2.751l-4.17 2.478 2.38-4.3h-6.11l2.355 4.295-4.155-2.473v6l4.163-2.442zm48.82 118.454a7.217 7.217 0 00.566-1.14l-1.366-.329a7.289 7.289 0 01.8 1.469m-14.461-9.109a8.485 8.485 0 00-1.334 3.288l3.848.948a7.4 7.4 0 013.84.543c.741.379.809.56.809.56l1.7.388a5.883 5.883 0 014.315 1.052l2.092.516a8.48 8.48 0 00.312-3.556zm16.926-4.621c.007-.5-.189-8.391-.229-10.573a8.329 8.329 0 01-4.597-2.588c0-.005.1.807.123 1.189l-.478.083c.132 1.412.16 2.655.226 4.155.014.3.021.619.023.939l.414.074.267.048-.171.21-.617.759.906-.339.265-.1-.05.276-.72 3.978-.05.276-.212-.184-.23-.2a56.124 56.124 0 01-.334 3.136 9.356 9.356 0 014.8 6.344c.141-.692.251-1.413.341-2.15a51.419 51.419 0 00.326-5.331" fill="#fcd21f"/><path d="M114.695 106.645a9.743 9.743 0 01-2.088-2.062 8.687 8.687 0 01-2.836.206c.026 1.531.162 8.326.162 8.348a57.344 57.344 0 01-.435 8.306 21.908 21.908 0 01-.773 3.5 9.365 9.365 0 01-.112 1.247l.38 1.8 1.766 8.373s1.673-3 2.677-5.363 2.284-11.725 1.259-24.355m-48.65 27.147l-.115 1.638c4.205 7.42 3.531 14.423 1.715 20.562 5.798-4.168 1.557-16.1-1.6-22.2m-23.076 3.255a3.587 3.587 0 01-2.786.782c-.783-.049-3.03-.782-3.466-2.582a5.886 5.886 0 00-.248 1.9c.056 1.766 1.852 3.141 3.231 3.727l.223.11-.023.245c-.3 3.311.255 5.762 1.653 7.288a5.776 5.776 0 003.321 1.613c-1.649-2.62-4.618-6.94-1.905-13.083" fill="#fcd21f"/><path d="M55.483 127.47l-.122-1.73c-1.747 1.49-3.6 3.2-5.565 5.006a46.561 46.561 0 00-5.466 5.143 10.9 10.9 0 00-1.753 5.866c.033 3.117 1.55 5.614 2.847 7.918.165-11.248 5.119-19.094 10.059-22.203" fill="#fcd21f"/><path d="M55.722 130.853l-.18-2.549c-4.733 3.2-9.383 11.144-9.411 22.113l.01.024a14.632 14.632 0 003.77 6.1c-3.332-12.946.535-22.645 5.811-25.688m.238-16.362l-.169-1.16-.342-2.363-3.467 1.767-5.586 2.846a26.907 26.907 0 00-2.136 6.087 10.991 10.991 0 011.811-.184c.319-2.725 3.619-5.865 9.892-7m-15.736 4.242a5.58 5.58 0 00-.966 3.083 7.7 7.7 0 001.09 3.711 4.112 4.112 0 01.914-2.305 5.017 5.017 0 012.262-1.368 23.388 23.388 0 011.834-5.738z" fill="#fcd21f"/><path d="M55.834 132.426l-.054-.77c-5.016 3.1-8.5 12.851-4.927 25.594a10.666 10.666 0 004.416 1.616c-.21-.593-.415-1.2-.611-1.808-7.746-4.24-2.078-18.576 1.176-24.632M42.92 136.31c2.115-2.25 4.337-4.2 6.384-6.094 2.118-1.953 4.12-3.8 5.994-5.372l-.249-3.523c-.419 2.091-5.287 8.968-9.1 8.968a14.65 14.65 0 00-2.022 1.868c-1.232 1.278-2.63 2.726-4.3 3.143l-.088.012a3.254 3.254 0 01-2.439-.669c-.083.824 2.737 4.358 5.818 1.667" fill="#fcd21f"/><path d="M65.078 113.649l.54-3.808a13.192 13.192 0 01-4.651.844 13.194 13.194 0 01-4.709-.866l.511 3.5.575 3.937 3.665 25.1 3.6-25.381z" fill="#fffffe"/><path d="M66.197 131.656l-.055.77c3.254 6.056 8.922 20.392 1.176 24.63q-.294.918-.612 1.807a10.666 10.666 0 004.417-1.615c3.57-12.741.09-22.492-4.926-25.592m-3.798 7.78l-.981 6.93v14.293c4.828-8.01 3.657-15.194.981-21.223m-24.806-12.807a3.753 3.753 0 01-1.61-2.486 2.947 2.947 0 01-1.507 1.5 7.163 7.163 0 011.054.931c.538.6 1.41 1.918.755 2.491s-7.523.09-8.736-.011-4.687-.748-5.244-.7a6.59 6.59 0 00-2.564 1.181 2.141 2.141 0 00-.628 2.075c.163.481.372.5.724.371a1.541 1.541 0 00.609-.48s.891-1.733 1.533-1.858c.819-.161 3.049 1.954 3.76 2.273a12.985 12.985 0 004.511.115c.744-.208 1.774-1.043 3.026-1.185 1.4-.159 6.28.946 6.965.869a1.324 1.324 0 001-1.5c-.089-.609-.8-2.694-.8-2.694a4.167 4.167 0 01-2.849-.894m22.963 34.051v-14.749l-.958-6.551c-2.7 6.046-3.9 13.257.958 21.3" fill="#fcd21f"/><path d="M59.409 138.083l-2.953-20.211-.38-2.606c-4.472.845-8.852 2.9-9.272 6.232a10.922 10.922 0 011.973.39 6.95 6.95 0 002.764.39 3.186 3.186 0 00.454-.1c1.229-.369 2.342-2.384 2.862-3.582l.613-1.648 1.315 18.648-.055.1c-4.892 8.55-3.083 16.581-.64 23.323.366.656.717.939 2.23 2.956.562.75 1.48 1.7 2.014 2.289l.11.117.111.121v-2.471c-6.057-9.187-4.343-17.265-1.146-23.948m7.024-9.779l-.179 2.549c5.275 3.043 9.142 12.742 5.81 25.687a14.631 14.631 0 003.771-6.1l.009-.024c-.027-10.968-4.677-18.912-9.411-22.112" fill="#fcd21f"/><path d="M54.33 155.992c-1.815-6.139-2.491-13.142 1.716-20.562l-.115-1.638c-3.156 6.1-7.4 18.032-1.6 22.2M45.019 51.016l-.166-.231-1.168-1.577c-3.143-.502-6.957-.24-7.553 2.134a7.432 7.432 0 00.266 4.625c1.087-2.431 2.361-3.82 5.012-3.824h.011a7.69 7.69 0 014.8 1.566c.135-.743-.326-1.47-1.138-2.6l-.063-.089m35.674-10.086q-2.068.678-4.757 1.305a2.009 2.009 0 002.146 1.726c.844 0 1.92-1.276 2.611-3.031m-2.408 8.274l-1.166 1.577-.166.231-.062.087c-.808 1.136-1.268 1.863-1.134 2.606a7.645 7.645 0 014.65-1.561h.16c2.647 0 3.92 1.393 5.006 3.823a7.423 7.423 0 00.266-4.625c-.595-2.378-4.405-2.64-7.554-2.138M76.2 50.834l.168-.235.1-.144v-1.844l.037-.077a12.041 12.041 0 001.2-3.874 2.978 2.978 0 01-1.824-.849 1.893 1.893 0 01-.237.336c-1.314 1.51-5.386 2.537-8.908 3.064h.014s-2.899 4.894-3.787 5.961c.291-.141.58-.283.866-.426a22.712 22.712 0 012.863-1.268l.476-.157v5.328a13.084 13.084 0 015.117-5.151l.663-.329-.146.723a18.135 18.135 0 00-.3 3.86 6.4 6.4 0 001.037 3.409 14.469 14.469 0 011.651-4.858c-.5-1.215.165-2.279 1.011-3.467" fill="#fcd21f"/><path d="M71.831 56.522a16.873 16.873 0 01.122-4.013 14.052 14.052 0 00-4.78 5.642c.012 3.209.742 5.54 2.226 7.079a20.262 20.262 0 01.115-3.7 49.134 49.134 0 011.225-5.921c.007.043.2 1.871.2 1.915.5 3.45 1.326 6.954 3.342 7.7a13.172 13.172 0 01-.867-5.079 6.83 6.83 0 01-1.583-3.623m-6.775 18.364l1.2 8.033s1.684-5.158 1.681-5.161c-.681-.685-2.265-2.189-2.881-2.872m15.488-26.614c2.725-.06 5.2.608 5.907 2.611 5.045-.058 8.663-1.748 10.758-5.048a18.123 18.123 0 01-5.048 1.942c-1.737.253-8.222.015-8.7-.436 0 0-2.031.67-2.921.931" fill="#fcd21f"/><path d="M70.538 59.495a29.81 29.81 0 00-.427 3.089 10.544 10.544 0 00.427 4.5l-.816-.612c-1.966-1.47-3.031-3.818-3.238-7.149-.087.145-2.18 3.581-3.008 4.758l.4 2.667 1.019 6.789c.692.786 1.581 1.528 2.339 2.318l.461-10.1.707 1.547c1.507 4.021 3.963 6.706 6.974 7.668-.724-1.088-3.857-6.712-3.857-6.712l1.132.753a9.231 9.231 0 004.115 1.725 7.316 7.316 0 003.107-.647 7.541 7.541 0 01-4.6-3.029c-.146-.189-.47-.769-.577-.924-2.646-.577-3.556-3.461-4.158-6.641" fill="#fcd21f"/><path d="M76.992 76.081a13.661 13.661 0 01-3.026-.907 12.5 12.5 0 01-5.541-5.975l-.488 8.559 2.612 4.423.277-.143v-6.18l4.923 3.673 5.02-2.448a23.98 23.98 0 003.978-2.554c1.521-1.276 3.392-2.854 3.72-4.36.188-1.085-1.114-5.236.691-7.238a4.886 4.886 0 013.734-1.46 4.453 4.453 0 001.027-1.768 8.423 8.423 0 00-3.113.045 5.6 5.6 0 00-2.762 1.392 8.528 8.528 0 00-2.38 5.141 8.423 8.423 0 01-1.833 3.626 8.835 8.835 0 01-3.192 2.34 4.38 4.38 0 01-2.323.064 26.384 26.384 0 01-4.951-2.03c.184.342 3.626 5.8 3.626 5.8M75.35 31.86a14.133 14.133 0 00.82-2.5l-1.251 1.66a1.867 1.867 0 01.431.84m-1.814-.655a1.047 1.047 0 101.05 1.049 1.05 1.05 0 00-1.05-1.049m2.816-2.828a11.425 11.425 0 00.112-1.574c.014-.167.017-.324.028-.487l-2 1.6zm-6.179 14.282c7.42-1.272 11.55-2.527 14.376-4.13-.142-.959-1.601-2.472-2.235-2.459s-12.724 5.345-16.431 6.589a10.7 10.7 0 004.29 0m8.254 1.984a12.481 12.481 0 01-1.236 4.14v.688l7.561-10.228a21.62 21.62 0 01-3.112 1.365c-.636 1.796-1.912 3.768-3.213 4.035m-6.002-10.911a2.117 2.117 0 01-.252.492 2.3 2.3 0 01.754 1.7c0 .034 0 .069-.005.1.431-.6.846-1.225 1.234-1.869.043-.065.087-.138.132-.212a1.846 1.846 0 01-.75.16 1.843 1.843 0 01-1.113-.371m11.197 12.791a14.376 14.376 0 001.642-.711 9.221 9.221 0 014.049-1.164 2.94 2.94 0 012.118.65 1.421 1.421 0 01.434.567c.725-2.761.41-5.293-2.036-6.131a8.943 8.943 0 00-4.159-.516l-6.5 8.793c1.108-.432 4.452-1.488 4.452-1.488m6.424 79.541c-.012-.031-.021-.064-.035-.094l.076.03a9.2 9.2 0 01-.091-1.278 10.527 10.527 0 01.194-1.838l-.04-.277a6.151 6.151 0 01-1.611-1.05c-1.626-1.635-2.415-3.64-3.448-5.439a19.343 19.343 0 00-4.916-6.284l-.029-.013a47.46 47.46 0 00-2.746-1.037l.661 1.485.555 1.068a21.678 21.678 0 017.873 12.371c.229 1.076 2.447 1.976 3.557 2.356m-9.29-45.884a49.317 49.317 0 012.594 6.883 2.759 2.759 0 002.677.671l-.176-.887a43.8 43.8 0 00-3.908-8.96z" fill="#fcd21f"/><path d="M74.534 29.504s-1.01.9-1 .9a1.849 1.849 0 01.8.185l1.254-1.659-2.688-.673 3.633-2.9v-.4l-5.733 3.65zm7.837 47.557l-.014.027a37.757 37.757 0 014.172 9.507 5.581 5.581 0 003.9 1.284 6.507 6.507 0 00-.2-1.052c-1.254-4.371-2.342-7.672-5.061-10.102a6.138 6.138 0 01-2.037-.083l-.76.419" fill="#fcd21f"/><path d="M80.716 117.159l-3.709-6.678c-1.927-3.758-3.878-7.697-3.899-7.649a13.212 13.212 0 01-1.9 3.025 13.477 13.477 0 01-4.884 3.695l4.9 2.625z" fill="#fffffe"/><path d="M50.923 19.654l-.883-2.137a8.453 8.453 0 00-1.333.662l1.063 2.543zm38.458 54.681c1.67 1.221 2.355 1.1 2.754 1.014.262-.055.759-.355.586-.849a19.214 19.214 0 00-3.556-4.112 6.353 6.353 0 01-1.2 1.954c.463.765 1.095 1.523 1.416 1.993m-3.91.53c.078.065.213.223.379.374.49.466 1.975.313 1.975.313.249-.041 1.219-.275 1-.758a8.655 8.655 0 00-1.309-1.942c-.725.675-1.38 1.462-2.045 2.013m13.892 41.323a8.548 8.548 0 00-6.625 3.133l14.988 3.6a8.553 8.553 0 00-8.363-6.733m10.924-40.911a5.7 5.7 0 01-2.857-.889 7.506 7.506 0 00-.356-.2 1.723 1.723 0 01-.877.925c-.815.334-1.861-.119-3.377-.868a1.485 1.485 0 01-.569 1 1.553 1.553 0 01-.154.08c2.293 2.525 3.9 6.43 5.713 11.246a8.036 8.036 0 007.333 1.845 35.741 35.741 0 00-4.846-13.12c0-.006-.008-.013-.011-.019m-2.227 28.577a10.056 10.056 0 001.25.259 7.128 7.128 0 002.578-.068c-.044-.258-.252-1.175-.289-1.342-1.985-8.671-3.604-10.514-5.452-13.513a8.768 8.768 0 01-4.84-1.515c.107.372.231 1.366.231 1.366s-.769 0-.924-.008a35.254 35.254 0 013.618 11.982 10.889 10.889 0 003.829 2.839m-6.675-38.198c2.959 2.424 5.382 5.437 5.822 7.787.2.1.394.21.576.311a5.011 5.011 0 002.756.812 1.671 1.671 0 00.889-.248c-.72-3.933-4.21-7.26-7.078-9.395a3.245 3.245 0 01-2.965.733m-1.546-1.118l.211.07c1.362.455 2.958.625 3.7-.108a32.834 32.834 0 00-9.128-4.635 4.7 4.7 0 01-.883 1.72 17.455 17.455 0 016.1 2.953m-7.688 54.223c.111-.135.47-.5.838-.847l-.265-.833a7.986 7.986 0 00-2.372-4.288 9.308 9.308 0 01-.99 1.986 9.891 9.891 0 011.886 2.462c.214.37.551 1.034.848 1.591.018-.024.037-.05.055-.071m7.531-3.373a9.356 9.356 0 013.379.749c.072-.5.2-1.536.259-2.054l-3.252-.553zM84.924 75.311a29.64 29.64 0 01-1.014.708 2.388 2.388 0 001.581-.131c-.154-.138-.463-.488-.567-.577M58.442 18.315l.3 1.675.383-1.149zm.994 5.605l.346-1.39-.807-1.21zm2.171-1.818l1.046-1.566-.49-1.463h-2.355l-.489 1.463 1.046 1.566zm-4.137-9.271l.162.918.612-.918zm2.188 2.4h2.657l1.487-.988-.942-1.412h-3.746l-.943 1.413zm.33 16.946l-1.175-4.1-1.438 1.431a33.168 33.168 0 012.613 2.669m-2.153-17.289l.323 1.826.8-1.078zm-3.651 1.745c-.335.023-.654.062-.972.1l.2.611zm-1.53 5.321l1.155-1.152-.727-2.166-1.3 1.207zm.18-4.07l-.348-1.041a13.05 13.05 0 00-1.769.42l.771 1.868zm4.363 10.78l1.388-1.38-.468-1.633-1.444 1.44zm7.306-15.833h-.775l.613.918zm-8.086 13.495l1.472-1.469-.627-2.184-1.6 1.395zm-1.002-3l1.628-1.42-.736-2.574-1.67 1.665zm-1.033-3.093l1.7-1.694-.565-1.96c-.076 0-.149.008-.221.009l-1.628 1.508zm11.921 3.835l-1.6-1.395-.626 2.184 1.473 1.469zm3.009-2.114l.872-2.111-1.302-1.207-.724 2.166zm-.558-5.221c-.317-.037-.635-.076-.971-.1l.768.711zm-.455 1.363l-1.628-1.508c-.076-.001-.145-.009-.222-.009l-.561 1.96 1.7 1.694zm-.969 2.901l-1.669-1.665-.738 2.574 1.629 1.42zm6.765 1.483l1.068-2.499a6.475 6.475 0 00-.533-.673 6.509 6.509 0 00-.767-.7l-1.1 2.637zm-1.899-1.758l1.063-2.543a8.487 8.487 0 00-1.332-.662l-.883 2.137zm-.946-3.459a13.022 13.022 0 00-1.769-.42l-.348 1.041 1.345 1.247zm-10.256-1.277h-.015l-1.3.023-1.159 1.452 1.152.891H62.3l1.153-.891-1.159-1.452zm2.24 4.004l.298-1.675-.683.526zm12.523 4.032h.007c.239-.019.477-.025.714-.032a8.735 8.735 0 00-.854-3.239l-.967 2.25zm-13.22-.102l.461-2.6-.807 1.209zm1.276-7.206l.325-1.826-1.112.749zm-1.828 15.463c.853-.969 2.684-2.741 2.605-2.669l-1.435-1.431-1.177 4.1zm3.309-5.086l-1.445-1.44-.467 1.633 1.387 1.38z" fill="#fcd21f"/><path d="M70.807 103.523H51.123l9.887-17.387 9.8 17.386zM61.005 88.06l-8.253 14.517h16.432L61.005 88.06z" fill="#0b0b09"/><path d="M55.369.162h11.235v11.2H55.369z" fill="none"/><g clip-path="url(#a)" transform="translate(55.369 .162)"><path d="M9.984 11.2H1.238l1.65-2.962L0 9.933V1.238l2.895 1.724L1.272 0h8.712L8.348 2.956l2.887-1.717v8.709L8.344 8.24l1.64 2.96zM4.933 6.147l-2.389 4.289H8.68L6.3 6.144 10.466 8.6V2.589L6.3 5.067l2.38-4.3H2.569l2.356 4.295L.77 2.589v6l4.161-2.441z" fill="#0b0b09"/></g><path d="M60.995 165.686h-.01a6.534 6.534 0 01-1.175-1.08 40.614 40.614 0 01-2.083-2.313c-.557-.663-1.093-1.413-1.484-1.96-.209-.292-.374-.523-.491-.671a11 11 0 01-6.841-3.082 16.008 16.008 0 01-3.356-5.654 6.209 6.209 0 01-4.534-1.922c-1.5-1.641-2.129-4.2-1.859-7.6-1.109-.61-3.415-1.879-3.415-4.107a6.864 6.864 0 01.946-3.706 4.544 4.544 0 002.442 1.032 1.982 1.982 0 00.363-.033c1.484-.39 2.775-1.741 3.914-2.934a14.393 14.393 0 012.306-2.05 5 5 0 002.718-1.063 16 16 0 002.73-2.495c1.63-1.833 3.018-4.038 3.228-5.128a4.153 4.153 0 01-2.336 1.942 5.959 5.959 0 01-.759.125 4.791 4.791 0 01-.491.026 6.434 6.434 0 01-1.826-.322l-.39-.107a8.5 8.5 0 00-2.156-.388c-2.225 0-3.777.5-4.613 1.485a4.393 4.393 0 00-.682 3.644c0 .018.5 1.87.818 2.853a1.88 1.88 0 01-.356 1.6 1.4 1.4 0 01-1.029.662.69.69 0 01-.118-.01 67.717 67.717 0 00-6.849-.878c-.107 0-.2 0-.27.011a11.008 11.008 0 00-5.283 2.858 5.368 5.368 0 01.333 2.114 6.444 6.444 0 01-.334 1.439 15.282 15.282 0 012.666 2.814 7.936 7.936 0 01.364 2.822 4.6 4.6 0 01-.27 1.866l-1.341.669a.107.107 0 01-.046.008 6.664 6.664 0 01-1.906-.736 6.094 6.094 0 01-2.229-1.8 12.758 12.758 0 01-1.06-3.938h-.436a7.193 7.193 0 01-2.569-.312 1.838 1.838 0 01-.748-1.034c-.048-.018-1.164-.457-1.244-1.416a3.127 3.127 0 01.434-1.622c-.1-.039-1.01-.395-1.151-.978-.151-.617.492-1.57.5-1.579a2.759 2.759 0 01-.586-1.359 8 8 0 01.3-1.842 6.222 6.222 0 01-1.657-1l-.691 2.788-2.374-4.658-.516 2.449-1.986 9.415-3.132-6.244-2.559 12.1-.43-1.2c-2.693-7.524-5.7-17.534-5.031-28.253-.013-13.224 2.844-20.724 5.64-26.31a30.259 30.259 0 011.566-6.495 44.566 44.566 0 013.266-6.94c-.006 0-.044-.009-.1-.017a2.511 2.511 0 01-.514-.119.65.65 0 01-.48-.689 12.207 12.207 0 012.529-5.361 25.089 25.089 0 014.763-4.6 32.434 32.434 0 0110.523-5.38 9.084 9.084 0 011.608-.13 11.7 11.7 0 012.382.236 7.14 7.14 0 015.381 6.43 8.469 8.469 0 00.413 1.6 9.278 9.278 0 003.189 3.851 5.28 5.28 0 001.287.594 5.091 5.091 0 00.944.139 3.425 3.425 0 001.15-.226h-.007c-.278-.073-2.737-.739-3.4-1.766a7.017 7.017 0 001.894-.467 8.4 8.4 0 003.626-2.713 9.746 9.746 0 001.713-6.664 15.858 15.858 0 00-1.617-5.327 6.788 6.788 0 00-4.7-1.711H41.4c-2.245 0-3.423 1.049-4.667 4.146l-.3.746-.36-.719a8.148 8.148 0 01-.752-5.428c-5.647-.111-9.718-2.339-11.772-6.441l-.486-.967.97.484a46.811 46.811 0 006.15 2.451 5.3 5.3 0 01-1.088-2.267 6.206 6.206 0 01.305-3.452 4.546 4.546 0 012.566-2.388 9.482 9.482 0 013.556-.656 8.619 8.619 0 011.161.069 4.19 4.19 0 01.933-2 2.586 2.586 0 011.832-1.037h.032a10.4 10.4 0 013.081 1.057l7.229 2.943v-1.205c-2.658-3.331-5.117-7.013-5.117-11.364-.025-.783.006-1.448.035-2.092v-.015l.011-.237c.006-.137.018-.273.029-.4l.01-.113a8.355 8.355 0 012.044-5.164c1.826-2 4.765-2.965 8.987-2.965h.273l1.767 6.165.036.128 2 7.614-3.256-17.652h8.756l-3.269 17.652 2.005-7.614.037-.128 1.767-6.164h.272c4.222 0 7.161.97 8.987 2.965a8.351 8.351 0 012.043 5.156l.009.1v.015c.011.131.023.267.029.4a17.46 17.46 0 01-.061 2.339c0 4.489-2.532 8.267-5.009 11.369v1.261l7.105-2.9a17.469 17.469 0 012.954-1.078h.037a3.183 3.183 0 011.789.991 3.767 3.767 0 011.213 1.968h.014c.223-.011.445-.013.591-.013a13.363 13.363 0 014.114.6 3.92 3.92 0 012.41 2.356 6.16 6.16 0 01.345 2.832 7.779 7.779 0 01-.868 2.893 3.518 3.518 0 00-.831-1.3 2.669 2.669 0 00-1.6-.444h-.105a8.68 8.68 0 00-3.753 1.094l-.026.012c-.327.158-.666.321-1.02.472 1.064.141 3.451.16 5.645.16h1.7a44.594 44.594 0 006.051-2.42l.971-.484-.487.967c-2.055 4.1-6.125 6.329-11.772 6.441a8.14 8.14 0 01-.753 5.428l-.359.719-.3-.746c-1.245-3.1-2.425-4.146-4.675-4.146a6.792 6.792 0 00-4.695 1.711 15.838 15.838 0 00-1.618 5.327 9.078 9.078 0 001.784 6.742 8.694 8.694 0 003.587 2.62 7.352 7.352 0 001.857.482c-.694 1.085-3.373 1.76-3.4 1.767a3.42 3.42 0 001.15.226 5.111 5.111 0 00.944-.139 5.376 5.376 0 001.274-.589 9.268 9.268 0 003.189-3.846 8.471 8.471 0 00.413-1.6 7.14 7.14 0 015.381-6.43 11.708 11.708 0 012.382-.236 9.081 9.081 0 011.607.13 32.433 32.433 0 0110.528 5.382 25.086 25.086 0 014.763 4.6 12.206 12.206 0 012.529 5.361.649.649 0 01-.48.689 2.513 2.513 0 01-.515.119.907.907 0 00-.095.017 44.551 44.551 0 013.267 6.94 30.267 30.267 0 011.566 6.495c2.795 5.592 5.652 13.091 5.652 26.319.669 10.717-2.337 20.728-5.031 28.253l-.431 1.2-2.558-12.1-3.133 6.244-1.986-9.415-.28-1.331a7.573 7.573 0 01-1.193 2.309 7.006 7.006 0 01-2.608 3.494 12.248 12.248 0 01-4.473 1.562 1.661 1.661 0 01-.178.009c-1.444 0-5.293-1.457-8.1-2.52a27.246 27.246 0 00-3.1-1.083 2.866 2.866 0 00-.27-.011 67.944 67.944 0 00-6.85.878.689.689 0 01-.118.01 1.4 1.4 0 01-1.029-.662 1.878 1.878 0 01-.355-1.6c.325-.99.812-2.834.817-2.853a4.395 4.395 0 00-.681-3.644c-.837-.986-2.388-1.485-4.613-1.485a8.478 8.478 0 00-2.157.388l-.389.107a6.435 6.435 0 01-1.827.322 4.793 4.793 0 01-.491-.026.024.024 0 010-.012 5.593 5.593 0 01-.671-.112 4.148 4.148 0 01-2.336-1.942c.21 1.089 1.6 3.294 3.228 5.128a16 16 0 002.731 2.495 5 5 0 002.719 1.063 14.505 14.505 0 012.3 2.05c1.139 1.193 2.43 2.544 3.913 2.934a1.985 1.985 0 00.363.033 4.566 4.566 0 002.442-1.032 6.852 6.852 0 01.945 3.706 3.591 3.591 0 01-1.247 2.614 10.326 10.326 0 01-2.168 1.494c.271 3.4-.355 5.958-1.859 7.6a6.206 6.206 0 01-4.534 1.922 16.013 16.013 0 01-3.356 5.654 11 11 0 01-6.84 3.082 19.99 19.99 0 00-.494.675c-.391.547-.926 1.295-1.482 1.957a40.615 40.615 0 01-2.087 2.316 6.508 6.508 0 01-1.173 1.065zm.427-2.437v1.248l.009-.01c.033-.035.067-.072.1-.111.051-.057.108-.117.178-.191.1-.11.215-.234.326-.353l.085-.092c.556-.6 1.133-1.232 1.536-1.77.666-.888 1.1-1.436 1.423-1.836a7.776 7.776 0 00.806-1.12c2.436-6.723 4.265-14.751-.64-23.322l-.054-.1 1.315-18.649.613 1.648c.226.522 1.426 3.15 2.862 3.585a3.067 3.067 0 00.453.1 3.569 3.569 0 00.414.024 8.223 8.223 0 002.1-.378l.16-.043a10.748 10.748 0 011.973-.39c-.2-1.551-1.244-2.914-3.117-4.05a18.8 18.8 0 00-6.154-2.182l-.306 2.209-2.924 20.652a26.448 26.448 0 012.871 11.01 20.578 20.578 0 01-.864 6.22 25.367 25.367 0 01-3.174 6.66v1.235zm-5.954-46.3l1.316 18.646-.056.1c-4.9 8.572-3.075 16.6-.64 23.322a7.81 7.81 0 00.807 1.121c.32.4.757.948 1.423 1.835.447.6 1.111 1.312 1.644 1.888l.37.4.11.117.11.121v-2.466a25.341 25.341 0 01-3.184-6.678 20.561 20.561 0 01-.859-6.236 22.941 22.941 0 01.876-5.766 32.385 32.385 0 012.021-5.268l-2.953-20.21-.38-2.606a18.8 18.8 0 00-6.154 2.182c-1.873 1.136-2.922 2.5-3.118 4.05a10.766 10.766 0 011.973.39l.151.041.021.006a8.161 8.161 0 002.094.378 3.49 3.49 0 00.5-.035 3.068 3.068 0 00.454-.1c1.109-.336 2.206-2.072 2.862-3.585zm4.129 22.428c-3.4 7.63-3.089 14.6.957 21.3v-14.748zm2.8.058l-.981 6.93v14.292c4.032-6.684 4.353-13.626.983-21.221zm3.8-7.78l-.055.77a47.535 47.535 0 014.713 13 16.766 16.766 0 010 6.849 7.163 7.163 0 01-3.542 4.786 59.493 59.493 0 01-.611 1.808 10.653 10.653 0 004.417-1.616 33.118 33.118 0 00.756-16.412c-1-4.224-3.071-7.571-5.678-9.185zm-10.417 0c-2.607 1.613-4.679 4.96-5.683 9.182a33.125 33.125 0 00.751 16.413 10.652 10.652 0 004.416 1.616 62.439 62.439 0 01-.611-1.808 7.163 7.163 0 01-3.542-4.786 16.768 16.768 0 010-6.849 47.54 47.54 0 014.713-13l-.054-.77zm10.654-3.351l-.18 2.549a11.252 11.252 0 013.6 3.477 18.742 18.742 0 012.531 5.653 32.586 32.586 0 01-.322 16.556 14.444 14.444 0 003.771-6.1l.008-.024a33.367 33.367 0 00-2.94-13.97 20.086 20.086 0 00-6.468-8.141zm-10.891 0a20.082 20.082 0 00-6.47 8.143 33.381 33.381 0 00-2.941 13.97l.01.024a14.444 14.444 0 003.77 6.1 32.594 32.594 0 01-.322-16.556 18.742 18.742 0 012.531-5.653 11.25 11.25 0 013.6-3.477l-.18-2.549zm10.5 5.488l-.116 1.638a24.425 24.425 0 012.3 5.48 22.95 22.95 0 01.818 5.282 30.358 30.358 0 01-1.4 9.8c2.56-1.842 3.421-5.334 2.558-10.38a43.489 43.489 0 00-4.155-11.82zm-10.114 0a43.482 43.482 0 00-4.158 11.824c-.863 5.045 0 8.537 2.558 10.38a30.357 30.357 0 01-1.4-9.8 22.945 22.945 0 01.819-5.286 24.42 24.42 0 012.3-5.48zm23.078 3.255a11.287 11.287 0 01.743 7.632 17.96 17.96 0 01-2.472 5.17l-.178.281a5.734 5.734 0 003.321-1.613c1.4-1.526 1.952-3.978 1.652-7.289l-.023-.245.223-.11c1.173-.5 3.172-1.844 3.228-3.729a5.96 5.96 0 00-.244-1.9 3.228 3.228 0 01-1.6 1.948 4.831 4.831 0 01-1.862.635c-.174.012-.33.017-.477.017a3.351 3.351 0 01-2.309-.797zm-42.293-1.8a5.949 5.949 0 00-.244 1.9c.056 1.885 2.055 3.231 3.228 3.729l.223.11-.022.245c-.3 3.31.255 5.763 1.652 7.289a5.736 5.736 0 003.321 1.613l-.177-.28a17.96 17.96 0 01-2.473-5.17 11.29 11.29 0 01.743-7.633 3.351 3.351 0 01-2.308.8c-.148 0-.3-.006-.478-.017a4.83 4.83 0 01-1.861-.635 3.228 3.228 0 01-1.601-1.952zm29.9-9.506l-.122 1.73a20.059 20.059 0 016.82 8.049 29.719 29.719 0 012.292 6.376 35.833 35.833 0 01.946 7.777l.211-.374.013-.024c1.215-2.148 2.593-4.582 2.623-7.521a10.85 10.85 0 00-1.752-5.866 27.051 27.051 0 00-3.786-3.68c-.553-.467-1.124-.949-1.679-1.462-2.112-1.949-3.864-3.555-5.565-5.006zm-11.254 0c-1.81 1.544-3.8 3.382-5.563 5-.558.515-1.13 1-1.682 1.465a27.016 27.016 0 00-3.785 3.679 10.857 10.857 0 00-1.753 5.866c.031 2.939 1.408 5.373 2.623 7.521l.005.009.22.389a35.822 35.822 0 01.947-7.777 29.718 29.718 0 012.292-6.376 20.065 20.065 0 016.82-8.049zm-27.786 12.783a7.9 7.9 0 01-2.6 1.126 14.686 14.686 0 00.946 3.521 5.148 5.148 0 001.678 1.4 4.909 4.909 0 001.827.752.319.319 0 00.137-.025c.114-.055.225-.111.314-.156.107-.054.2-.1.276-.136a.346.346 0 00.14-.212 7.122 7.122 0 00-.338-3.745 12.536 12.536 0 00-2.38-2.526zm28.685-28.705l.511 3.5.575 3.937 3.665 25.1 3.6-25.381.471-3.324.54-3.808a13.248 13.248 0 01-9.36-.023zm57.868 21.421l2.22 10.5c2.268-6.5 5.211-16.352 4.561-26.776 0-2.014-.072-3.958-.219-5.942h-.018c-.282-.029-.967-.1-1.239-.162a13.316 13.316 0 01-3.965-1.682c.664 10.841.253 18.263-1.331 24.064zM5.88 107.544a12.835 12.835 0 01-3.338 1.315c-.328.073-1.248.163-1.257.164a79.673 79.673 0 00-.219 5.942c-.65 10.417 2.291 20.27 4.56 26.776l2.22-10.5h-.007c-1.558-5.705-1.979-12.942-1.366-23.465a1.36 1.36 0 01-.593-.232zm21.713 29.527a14.394 14.394 0 01-6.219 1.441.391.391 0 00.226.45 3.648 3.648 0 001.269.131 13.138 13.138 0 001.91-.131 5.044 5.044 0 002.586-1.213 1.011 1.011 0 00.227-.678zm-7.252-1.5a2.354 2.354 0 00-.348 1.454c.163.605 1 .775 1.008.776a19.573 19.573 0 004.415-.568c1.391-.349 2.268-.766 2.348-1.117.166-.736-.19-.847-.193-.848a28.14 28.14 0 01-5.858.6H21.7a3.32 3.32 0 01-1.359-.302zm46.587-14.249l-.249 3.523c1.921 1.614 3.992 3.525 5.994 5.372.4.369.815.749 1.217 1.116 1.7 1.557 3.465 3.167 5.167 4.978a3.587 3.587 0 002.366.994 3.9 3.9 0 002.74-1.345 2.315 2.315 0 00.713-1.316 3.2 3.2 0 01-2.032.693 3.322 3.322 0 01-.406-.025l-.088-.011c-1.675-.416-3.071-1.865-4.3-3.143a14.481 14.481 0 00-2.022-1.867c-2.226 0-4.6-2.318-5.819-3.7a22.21 22.21 0 01-2.214-2.985 8.175 8.175 0 01-1.067-2.284zm-29.826 13.321a2.311 2.311 0 00.711 1.315 3.9 3.9 0 002.741 1.347 3.586 3.586 0 002.366-.994c1.7-1.813 3.466-3.424 5.171-4.982l.008-.007c.4-.363.809-.739 1.2-1.1 2-1.845 4.068-3.753 5.994-5.372l-.249-3.523a8.17 8.17 0 01-1.062 2.283 22.208 22.208 0 01-2.214 2.985c-1.218 1.382-3.593 3.7-5.82 3.7a14.558 14.558 0 00-2.022 1.867c-1.232 1.278-2.629 2.726-4.3 3.143l-.088.011a3.32 3.32 0 01-.406.025 3.2 3.2 0 01-2.03-.698zm72.669-29.855c.019 1.131.1 5.2.138 7.158v.079l.022 1.111a57.8 57.8 0 01-.433 8.307 22.039 22.039 0 01-.774 3.5 9.408 9.408 0 01-.112 1.243l.379 1.8 1.767 8.373c.013-.024 1.679-3.014 2.678-5.364.449-1.055 1.05-3.8 1.391-8.327a103.99 103.99 0 00-.133-16.027l-.163-.126a9.591 9.591 0 01-1.924-1.936 7.157 7.157 0 01-2.073.234c-.272 0-.529-.009-.762-.028zM8.216 106.941a5.973 5.973 0 01-1.012.714 102.456 102.456 0 00-.03 15.354A30.994 30.994 0 008.538 131c1 2.344 2.659 5.334 2.676 5.364l1.6-7.591.662-3.143a32.818 32.818 0 01-1.5-10.587v-.467c0-.393-.006-.882-.006-.924l-1.953-5.663a.77.77 0 01-.127-.03 4.143 4.143 0 01-1.242-.694c-.142-.1-.278-.2-.429-.324zm12.515 25.225l-.938.531c-.007.009-.676.942-.479 1.445s1.793 1.005 2.1 1.005a31.136 31.136 0 005.574-.507c.288-.124.337-.621.26-1.029s-.3-.848-.632-.86h-1.24a2.219 2.219 0 01-1.512.659 10.882 10.882 0 01-3.133-1.244zm67.555-1.336a2.953 2.953 0 01.329.016 32.812 32.812 0 013.907 1.311c2.744 1.01 6.158 2.266 7.341 2.266h.041a11.047 11.047 0 004.005-1.406 8.961 8.961 0 001.455-1.366 2.792 2.792 0 00.824-1.807 6.134 6.134 0 00-1.279-2.65c-.317-.591-1.665-.906-2.517-.906-.1 0-.191 0-.276.012l.007.005c.232.229 2.265 2.265 2.092 3.123-.177.881-.975 1.517-2.51 2a11.568 11.568 0 01-2.365.4 15.2 15.2 0 00.6-3.233 5.568 5.568 0 00-1.33-3.114 3.253 3.253 0 00-2.254-.639c-.148 0-.3.006-.439.017l.007.007a9.62 9.62 0 011.621 2.77c.3 1.3.135 2.786-.928 3.168a.554.554 0 01-.187.03 6.592 6.592 0 01-2.546-1.332l-.162-.112a6.432 6.432 0 00-2.208-1.22.411.411 0 00-.054 0 1.207 1.207 0 00-.732.382h.04a1.473 1.473 0 00-.237.265 1.893 1.893 0 00-.19.428.185.185 0 01-.006.02.142.142 0 00-.007.028c-.822.032-1.55.048-2.165.048a6.076 6.076 0 01-2.558-.275.689.689 0 01-.232-.5 3.487 3.487 0 01.987-1.994 7.133 7.133 0 011.053-.93 2.944 2.944 0 01-1.506-1.5 3.794 3.794 0 01-1.611 2.483 4.7 4.7 0 01-2.572.913 1.649 1.649 0 01-.277-.019c-.006.018-.709 2.091-.8 2.694a1.5 1.5 0 00.3 1.079 1.037 1.037 0 00.7.419.76.76 0 00.083 0 22.648 22.648 0 002.354-.338l.628-.106a26.759 26.759 0 013.574-.437zm-60.828 1.921a1.391 1.391 0 01.36 1.043l.135-.132a10.764 10.764 0 011.022-.912zm-5.3-2.374h-.01c-.338.026-.929 1.192-.935 1.2a11.591 11.591 0 002.61 1.039h.007a1.361 1.361 0 00.942-.387 16.345 16.345 0 00-2.617-1.851zm-.08-.745a6.671 6.671 0 012.5 1.471 8.5 8.5 0 001.167.812 9.166 9.166 0 002.564.257 9.379 9.379 0 001.939-.142 5.43 5.43 0 00.945-.424 6.029 6.029 0 012.082-.761 2.952 2.952 0 01.329-.016 26.736 26.736 0 013.57.444l.609.1h.018a22.632 22.632 0 002.356.339.764.764 0 00.083 0 1.036 1.036 0 00.7-.418 1.5 1.5 0 00.3-1.079c-.087-.595-.768-2.607-.8-2.694a1.874 1.874 0 01-.274.018 4.705 4.705 0 01-2.572-.913 3.785 3.785 0 01-1.61-2.485 2.947 2.947 0 01-1.507 1.5l.008.005a7.291 7.291 0 011.045.925 3.484 3.484 0 01.987 1.993.689.689 0 01-.233.5 6.082 6.082 0 01-2.559.275c-2.638 0-6.142-.283-6.177-.286-.543-.045-1.549-.2-2.522-.352-1.163-.181-2.261-.351-2.653-.351h-.07a6.588 6.588 0 00-2.562 1.176 2.139 2.139 0 00-.629 2.076c.1.309.232.44.424.44a.884.884 0 00.3-.069 1.543 1.543 0 00.608-.48c.009-.017.9-1.735 1.534-1.86a.5.5 0 01.097 0zm77.708-3.533a5.5 5.5 0 01.81 2.44 8.184 8.184 0 01-.4 2.525c.82-.093 3.232-.811 3.3-1.675.069-.843-1.888-2.836-1.908-2.856zm-8.5 1.312a5.436 5.436 0 012.768 1.346c.146.108.289.217.427.322a4.394 4.394 0 001.728 1.024.389.389 0 00.075-.007.775.775 0 00.554-.446 2.8 2.8 0 00-.19-2.24c-.362-.753-1.474-2.41-1.485-2.426l-4.316-1.042a9.083 9.083 0 00-.037.78 10.053 10.053 0 00.435 2.691h.037zm-78.538-11.59c.038 1.556.166 3.317.351 4.831a20.571 20.571 0 001.054 4.708l2.064 4.116c0-.014.4-1.521.37-1.593-.284-.792-1.124-4.164-1.132-4.2zm93.182 11.762a7.267 7.267 0 01.8 1.469 7.122 7.122 0 00.569-1.139zm-94.316-20.08c-.1.045-.787.32-.918.368 1.947 5.559 5.237 14.982 5.4 15.622.056.212.141.567.24.978a26.234 26.234 0 00.912 3.297 3.3 3.3 0 001.924 1.031h.091a3.661 3.661 0 002.244-1.026 3.556 3.556 0 00.356-2.031 28.529 28.529 0 00-1.645-2.617 59.209 59.209 0 01-.723-1.1c-.447-.7-5.661-10.389-7.881-14.522zm13.568 9.981l-2.625 8.556-.231 1.654 5.356.655c.712.088 3.455.25 5.487.25 1.011 0 2.232-.042 2.306-.241.15-.4-.186-.84-.542-1.3a21.8 21.8 0 01-.17-.224 5.754 5.754 0 00-.951-.823l-3.489 1.4.656-4.582h-.006a5.761 5.761 0 01-1.013.08 7.72 7.72 0 01-1.029-.07 10.725 10.725 0 01-2.306-.649l.806-.671-.008-.011a24.654 24.654 0 01-1.309-2.091c-.312-.585-.926-1.92-.932-1.933zm62.9 8.524a5.776 5.776 0 00-.952.823 19 19 0 01-.171.225c-.355.462-.691.9-.541 1.3.073.2 1.293.24 2.3.24.334 0 .7 0 1.095-.013a4.785 4.785 0 01.669-.887 4.9 4.9 0 01-.215-.738l-.019-.083-2.17-.868zm13.851-.4a5.652 5.652 0 013.518 1.11l2.092.516a8.483 8.483 0 00.313-3.556l-15.581-3.738a8.438 8.438 0 00-1.335 3.288l3.848.948a7.553 7.553 0 013.84.543c.731.374.808.557.809.559l1.7.388a5.275 5.275 0 01.795-.056zm-22.351-12.476a66.826 66.826 0 013.519 6.949 5.846 5.846 0 010 3.468l-.027.108a14.774 14.774 0 01-.969 2.558c-.092.2-.171.374-.233.52a4.35 4.35 0 002.176-.769c.446-.352 1.84-1.721 1.058-4.561-.819-2.98-3.752-6.58-5.524-8.273zm-37.273 0c-1.772 1.693-4.7 5.293-5.523 8.273-.781 2.839.612 4.209 1.058 4.561a4.375 4.375 0 002.176.769c-.063-.149-.143-.323-.235-.526a14.868 14.868 0 01-.966-2.552l-.028-.111a5.849 5.849 0 010-3.465 66.981 66.981 0 013.518-6.949zm2.264-4.348c-1 .343-1.895.683-2.745 1.038l-.019.008h-.011a19.28 19.28 0 00-4.917 6.283c-.23.4-.456.819-.674 1.223a17.4 17.4 0 01-2.854 4.215 5.607 5.607 0 01-1.482.981l-.129.069-.526 3.662c.038-.011 3.882-1.123 4.187-2.559a20.376 20.376 0 013.5-7.827 24.13 24.13 0 014.371-4.545l.577-1.116zm32.827 0l.662 1.485.554 1.069a24.11 24.11 0 014.371 4.545 20.38 20.38 0 013.5 7.827c.234 1.1 2.566 2.013 3.558 2.355l-.014-.037a.486.486 0 00-.02-.053l.076.03a9.3 9.3 0 01-.091-1.278 10.511 10.511 0 01.194-1.839l-.04-.276-.132-.07a5.588 5.588 0 01-1.478-.98 15.862 15.862 0 01-2.691-4.037 39.49 39.49 0 00-.758-1.4 19.266 19.266 0 00-4.915-6.283l-.016-.007-.013-.006a42.009 42.009 0 00-2.747-1.046zm-.869 7.326c.708 1.634 1.832 4.637 1.832 5.739a5 5 0 012.261 1.367 4.113 4.113 0 01.914 2.3 7.739 7.739 0 001.091-3.711 5.54 5.54 0 00-.965-3.083zm-31.171 0l-5.133 2.616a5.532 5.532 0 00-.965 3.083 7.77 7.77 0 001.09 3.711 4.126 4.126 0 01.914-2.3 5.064 5.064 0 012.261-1.367c.001-1.106 1.121-4.11 1.833-5.743zm-21.478-15.768c-2.44 2.247-3.513 2.9-5.214 3.163l-.033.357c-.1 1.1-.181 1.968-.206 3.621 0 .329-.007.684-.005 1.119-.007 5.573.731 10.555 2.024 13.67l1.746 2.738 2.531-8.67a35.732 35.732 0 01-.683-2.925 44.741 44.741 0 01-.16-13.073zm75.482 15.846a8.541 8.541 0 00-6.626 3.132l14.988 3.6a8.592 8.592 0 00-8.362-6.732zm4.7-2.86a55.87 55.87 0 01-.334 3.131 9.473 9.473 0 013.092 2.618 9.22 9.22 0 011.706 3.725c.129-.635.241-1.339.34-2.15a51.025 51.025 0 00.326-5.331c0-.281-.058-2.98-.118-5.589v-.011c-.046-1.98-.093-4.028-.11-4.973a8.35 8.35 0 01-4.6-2.588s0 .047.021.186c.03.257.085.737.1 1l-.478.083c.1 1.1.143 2.11.186 3.184v.012q.018.464.04.96c.012.292.02.608.023.939l.414.074.267.048-.171.21-.618.758.906-.34.265-.1-.05.275-.72 3.979-.05.275-.211-.183-.23-.2zm-64.403-2.518c-3.836 1.888-6.749 3.8-8.5 6.972-.075.132-.175.324-.292.547a16.32 16.32 0 01-.964 1.685 22.279 22.279 0 01-1.841 1.919 5.215 5.215 0 00.907.3 3.66 3.66 0 00.767.066 5.38 5.38 0 001.525-.2 4.478 4.478 0 001.744-1.113 15.17 15.17 0 002.448-3.747c.253-.488.515-.993.794-1.479a25.944 25.944 0 013.412-4.95zm42.651 0a25.726 25.726 0 013.408 4.952c.306.533.583 1.086.852 1.621a13.789 13.789 0 002.311 3.6 4.464 4.464 0 001.518 1.028l.014-.048c.008-.027.015-.054.024-.08a12.8 12.8 0 011.212-2.4 28.69 28.69 0 01-.628-1.156 22.314 22.314 0 00-.293-.55c-1.775-3.221-4.649-5.116-8.418-6.967zm-15.846-.09l-.42 2.963-.117.808c6.4 1.153 9.582 4.345 9.892 7a11.029 11.029 0 011.811.184c-.046-1.189-1.507-4.813-2.137-6.089l-4.947-2.676zm-11.018.248l-3.466 1.767-5.586 2.847a27.217 27.217 0 00-2.136 6.089 11.01 11.01 0 011.811-.184c.31-2.651 3.49-5.842 9.892-7l-.169-1.16zm-23.827 1.825a9.613 9.613 0 00-2.453 4.289l-1.263 3.968-.011.035c.052-.052.138-.127.246-.221a6.781 6.781 0 001.263-1.335c.182-.294.449-.8.707-1.3.2-.386.393-.75.533-.992a10.392 10.392 0 011.927-2.527 8.679 8.679 0 01-.948-1.917zm-6.836-13.809l-.039.306-.034.27a44.71 44.71 0 00.16 14.286l.044.206a19.879 19.879 0 00.6 2.333 30.718 30.718 0 001.954 4.017c.1-.341.226-.829.373-1.395.243-.929.518-1.982.753-2.729a43.017 43.017 0 001.77-7.238 13.966 13.966 0 00-.133-2.1c-.037-.36-.072-.7-.094-.971-.184-2.385-.3-4.327-.26-6.054zM17.6 102.16a12.764 12.764 0 01-2.883 2.219 1.319 1.319 0 01-.491.44l-.1.044a6.4 6.4 0 01-1.277.187l-.09.008a5.284 5.284 0 01-.325 1.758l.088.989c.126.229.231.4.331.569l.066.11 5.829 10.75a47.67 47.67 0 01-1.042-10.524c0-.389.01-.766.025-1.122l.039-.953v-.006c.043-1.078.083-2.1.186-3.2l-.478-.083c.016-.255.067-.7.1-.97.015-.146.023-.212.022-.216zm72.748 10.633a9.39 9.39 0 01-.99 1.985 9.953 9.953 0 011.89 2.463c.142.245.336.616.541 1.007.1.194.206.394.307.583l.009-.012a.98.98 0 01.046-.058c.113-.137.473-.5.837-.847-.1-.311-.182-.572-.235-.739l-.03-.093a7.983 7.983 0 00-2.375-4.289zm6.826-13.807l-5.089.93c.04 1.869-.108 4.109-.258 6.054-.021.275-.057.616-.094.978a13.992 13.992 0 00-.132 2.093 42.906 42.906 0 001.689 7.238c.088.282.19.636.313 1.08l.016-.013.072-.058a9.272 9.272 0 012.935-1.5c.174-.6.333-1.25.472-1.939a44.7 44.7 0 00.161-14.286 30.33 30.33 0 00-.043-.292c-.013-.112-.029-.218-.039-.285zm-24.066 3.845a13.189 13.189 0 01-1.9 3.025 13.512 13.512 0 01-4.888 3.695l4.9 2.625 9.492 4.982-3.705-6.678c-.868-1.693-1.739-3.419-2.439-4.805-.864-1.713-1.435-2.844-1.46-2.844zm-24.244 0c-.037 0-1.376 2.574-3.98 7.649l-3.709 6.678 10.151-5.175 4.547-2.317a13.473 13.473 0 01-5.113-3.81 13.2 13.2 0 01-1.9-3.025zm51.2 10.7l-.386 1.858a9.335 9.335 0 013.379.749c.071-.5.2-1.526.259-2.054l-3.253-.553zm-1.972-13.189a44.8 44.8 0 01-.16 13.074c-.131.74-.284 1.465-.454 2.154a9.391 9.391 0 011.452-.18l.5-2.125.172-.209.627-.766-.908.334-.264.1.051-.275.718-3.971.05-.277.213.185.738.64-.312-.932-.085-.255.265.048 2.847.511v-.914a40.561 40.561 0 00-.2-3.6v-.005l-.034-.371c-1.705-.269-2.777-.92-5.216-3.166zm-18.163 8.613l.588.241h.009a28.536 28.536 0 018.115 4.914c-.275-.81-1.038-3-1.151-3.322a23.249 23.249 0 00-7.561-1.833zm-37.885 0a23.25 23.25 0 00-7.562 1.833l-.092.265c-.246.705-.821 2.356-1.058 3.057 1.543-1.643 4.274-3.3 8.116-4.911.038-.015.436-.179.6-.244zm49.049 1.39a12.309 12.309 0 01-.365 1.41l-.105.345a5.754 5.754 0 011.131 1.379l.057.086a31.794 31.794 0 01-.717-3.221zm-60.214 0a31.513 31.513 0 01-.716 3.22l.055-.084a5.733 5.733 0 011.13-1.381l-.1-.33a12.521 12.521 0 01-.369-1.424zm60.488-10.3l-4.464.816c-.083 1.4-.355 4.058-.358 4.084.4 1.971 1.953 6.559 2.6 8.44l.019.055a18.005 18.005 0 001.794-5.577c.158-.778.428-5.966.409-7.815zm-60.763 0c-.026 1.76.249 7.02.409 7.818a16.854 16.854 0 001.793 5.577l.027-.078c.649-1.88 2.2-6.463 2.6-8.417-.028-.277-.279-2.743-.355-4.08zm71.233 11.1l-1.379 1.772 2.671.481-.664-2.143 1.6 1.365.467-2.578-1.981.722 1.332-1.709-2.617-.472.656 2.064-1.6-1.372-.464 2.563 1.981-.695zm-15.802-5.135a8.085 8.085 0 01-1.811 2.5 6.81 6.81 0 00-.368.388 18.457 18.457 0 013.336 1.025 36.738 36.738 0 01-1.157-3.913zm-50.1 0a36.466 36.466 0 01-1.157 3.906 18.432 18.432 0 013.335-1.025c-.091-.108-.219-.237-.366-.386a8.09 8.09 0 01-1.809-2.495zm25.03-20.964a12.26 12.26 0 00-3.478.5.027.027 0 000 .006 12.421 12.421 0 00-8.817 11.83 12.311 12.311 0 1024.622 0 12.421 12.421 0 00-8.815-11.83 12.285 12.285 0 00-3.51-.504zm19.283 17.035h-.014a7.632 7.632 0 01-.351 3.595 5.946 5.946 0 01-1.854 2.461c1.384.112 3.387.318 4.516.5a34.776 34.776 0 00-2.297-6.556zm-38.536 0a35.4 35.4 0 00-2.279 6.565c1.126-.186 3.229-.39 4.688-.508-1.8-.96-2.7-3.224-2.4-6.054h-.012zm44.456-1.082l-5.187.947a37.547 37.547 0 012.249 6.646 11.153 11.153 0 002.633-3.81 76.9 76.9 0 00.305-3.783zm-50.367 0a75.1 75.1 0 00.311 3.786 11.145 11.145 0 002.633 3.81 37.561 37.561 0 012.244-6.647zm72.447-13.211a7.25 7.25 0 01.281 1.16l-.041.007c-.757.124-1.294.2-1.512.215a25.861 25.861 0 013.451 6.563 47.157 47.157 0 011.583 5.557c.128.541.238 1.007.346 1.417a4.765 4.765 0 001.616 2.379c.082.077.166.155.246.232l.036.035a11.923 11.923 0 005.078 2.734 9.617 9.617 0 001.3.212 56.2 56.2 0 00-1.682-9.92l-.074-.279c-.045-.171-.091-.347-.139-.512a47.389 47.389 0 00-2.52-6.778c-.024 0-.589-1.1-.885-1.695a10.059 10.059 0 01-2.225.273 8.6 8.6 0 01-4.859-1.6zM5.748 90.81a47.5 47.5 0 00-2.52 6.778c-.045.157-.088.322-.13.482-.027.1-.054.2-.081.306a56.194 56.194 0 00-1.683 9.92 9.61 9.61 0 001.3-.212 13.942 13.942 0 002.727-1.066v-.005a8.52 8.52 0 01-.786-1.451 7.405 7.405 0 01-.448-3.587v-.026a3.285 3.285 0 01.359-1.067l.01-.019.01-.017c.03-.049.062-.1.1-.148a1.3 1.3 0 01-.132-.117l-.019-.019-.016-.019a1.116 1.116 0 01-.245-1 1.561 1.561 0 01.671-.889 1.141 1.141 0 01.193-.314 1.775 1.775 0 01-.08-.449 1.581 1.581 0 01.353-1.081l-.116-.3-.28-.733.731-.289.489-.193.5-.205.727-.3.311.721.128.3a1.611 1.611 0 011.008.53 1.762 1.762 0 01.256.376 1.209 1.209 0 01.359.093 2.007 2.007 0 01.339-.03 1.409 1.409 0 01.762.2 1.093 1.093 0 01.42.492 27.192 27.192 0 014.03-8.3c-.376-.026-1.541-.22-1.553-.222a.083.083 0 010-.015 6.636 6.636 0 01.279-1.145 8.607 8.607 0 01-4.86 1.6 9.96 9.96 0 01-2.224-.28c-.289.587-.862 1.7-.889 1.7zm36.638 11.392c-.361 3.362 1.193 5.161 2.633 5.68l2.387-4.763zm37.142.01l-4.96.907 2.386 4.747c1.404-.508 2.921-2.292 2.574-5.656zm-69.392 4.979a13.163 13.163 0 001.473-.6 5.477 5.477 0 00.431-2.271 8.743 8.743 0 001.781-.2l.037-.01h.005c.25-.127.339-.4.271-.837a7.771 7.771 0 00-.4-1.412 6.7 6.7 0 00-1.957-2.578l-.021-.018a2.7 2.7 0 00-.729-.365 1.094 1.094 0 00-.68.042l-.037.016a.651.651 0 00-.347.328 2.331 2.331 0 00-.111.329 1.644 1.644 0 01-.233.573.323.323 0 01-.1.069.165.165 0 01-.061.013c-.176 0-.282-.343-.306-.992v-.035a1.087 1.087 0 01.2-.123 1.754 1.754 0 00.468-.326l.028-.038a2.054 2.054 0 00.433-.841c-.013-.222-.191-.349-.489-.349a1.337 1.337 0 00-.482.1l-.016.005a.369.369 0 00-.308-.171.357.357 0 00-.085.01.207.207 0 00-.032.01 1.879 1.879 0 00-.5.479 1.049 1.049 0 00-.035-1.014.813.813 0 00-.7-.4.943.943 0 00-.314.056l-.355-.824-.5.205-.5.2.319.838a.819.819 0 00-.506.794 1.036 1.036 0 00.7.907 2.982 2.982 0 00-.409-.034.8.8 0 00-.285.039.17.17 0 00-.031.016.364.364 0 00-.169.388h-.016a1.007 1.007 0 00-.6.553.323.323 0 00.076.3 2.047 2.047 0 00.888.3l.055.01h.063a1.781 1.781 0 00.424-.072l.085-.023a1.144 1.144 0 01.22-.049l.027.029c.464.517.532.752.507.859a.138.138 0 01-.089.1.379.379 0 01-.123.02 1.709 1.709 0 01-.561-.249 2.354 2.354 0 00-.311-.16.658.658 0 00-.478.005l-.024.009-.015.006a1.076 1.076 0 00-.517.442 2.619 2.619 0 00-.269.767v.03a6.672 6.672 0 00.393 3.207 7.9 7.9 0 00.7 1.293c.208.293.414.435.629.435a.514.514 0 00.151-.023.183.183 0 00.035-.012 8.871 8.871 0 001.414-1.088 5.752 5.752 0 001.881 1.332h.012zm90.477-18.158a27.361 27.361 0 012.232 5.462 43.778 43.778 0 011.386 6.52 10.92 10.92 0 003.829 2.839 9.939 9.939 0 001.25.259 14.325 14.325 0 001.472.09 2.573 2.573 0 001.106-.158 38.518 38.518 0 00-.286-1.327v-.014c-1.764-7.7-3.256-10.048-4.837-12.536-.2-.315-.407-.641-.615-.978a8.747 8.747 0 01-4.84-1.515c.1.368.23 1.356.231 1.366h-.143c-.238-.002-.673-.004-.785-.008zm-79.945-1.358a8.744 8.744 0 01-4.841 1.515c-.207.337-.413.66-.612.974a27.392 27.392 0 00-3.682 8.077 2.918 2.918 0 01.739.42l.021.018a7.426 7.426 0 012.18 2.887 8.545 8.545 0 01.448 1.586c.008.055.011.1.014.153v.056a16.019 16.019 0 002.8-2.347 43.709 43.709 0 011.386-6.52 27.378 27.378 0 012.232-5.462c-.154.005-.917.008-.925.008a.238.238 0 010-.027c.062-.375.159-1.048.24-1.338zm82.286 10.255l-5.067.927.028.164v.024l.029.169a12.91 12.91 0 003.66 3.03 4.409 4.409 0 001.941.556 1.245 1.245 0 00.2-.013c0-.49-.362-2.54-.377-2.628a62.342 62.342 0 00-.419-2.23zm-83.936 0a61.719 61.719 0 00-.418 2.23c-.015.088-.377 2.138-.377 2.628a1.242 1.242 0 00.2.013 4.409 4.409 0 001.941-.556 12.916 12.916 0 003.661-3.03c0-.03.024-.165.04-.273v-.012l.011-.074-5.058-.926zm29.592-5.206c-.187 0-25.657 4.957-25.915 5.007.252.045 25.824 4.578 25.928 4.578a13.2 13.2 0 01-.9-4.917 14.782 14.782 0 01.884-4.668zm24.754 0a14.783 14.783 0 01.884 4.669 13.182 13.182 0 01-.9 4.917c.106 0 25.67-4.533 25.928-4.578-.252-.049-25.723-5-25.913-5zm21.783-3.7c.792 1.179 1.666 3.965 2.338 7.451l5.38 1.025c-.5-2.21-1.566-6.262-3.128-8.557a10.667 10.667 0 01-3.826-1.18c.061.3.111 1.222.113 1.261h-.876zm-69.083-1.256a10.663 10.663 0 01-3.826 1.18c-1.556 2.287-2.625 6.338-3.124 8.55l5.341-1.016c.653-3.426 1.54-6.212 2.373-7.453h-.88a.292.292 0 010-.029c.041-.616.08-1.053.116-1.232zm63.833.793c.7 2.543 1.288 4.954 1.653 6.789l5.165.984c-.766-3.86-1.735-6.669-2.528-7.33a4.882 4.882 0 01-3.029-.9l-.021.5c-.456 0-.861-.014-1.241-.041zm-59.081-.456a4.881 4.881 0 01-3.03.9c-.811.679-1.784 3.487-2.538 7.328l5.183-.986c.368-1.86.953-4.269 1.647-6.784-.385.028-.791.041-1.241.041l-.02-.5zm4.395-.4a5.8 5.8 0 01-2.36.777c-.781 2.821-1.348 5.084-1.684 6.726l4.07-.775a34.579 34.579 0 011.242-5.978c-.249-.042-1.3-.13-1.343-.134zm51.551 0l.075.617c-.007 0-1.085.09-1.342.134a35.034 35.034 0 011.227 5.978l4.064.774c-.37-1.8-.96-4.192-1.662-6.725a5.812 5.812 0 01-2.362-.782zm-3.6.189l.014.4a6.7 6.7 0 01-.933.136c.02.2.091.715.181 1.367.18 1.308.428 3.1.478 3.9l3.091.588a34.454 34.454 0 00-1.233-5.744 4.138 4.138 0 01-1.602-.651zm-44.342 0a4.139 4.139 0 01-1.6.656 33.889 33.889 0 00-1.208 5.738l3.061-.583c.056-.823.3-2.6.483-3.9.09-.652.162-1.167.182-1.366h-.009a6.764 6.764 0 01-.924-.136zm40.909-.248c.013.26.015.6.015.6a1.05 1.05 0 01-.439.1c-.08.009-.163.019-.253.033a22.622 22.622 0 01.613 4.7l2.5.475c-.083-1.14-.52-4.466-.668-5.186a3.256 3.256 0 01-1.768-.733zm-37.481-.004a3.256 3.256 0 01-1.769.733c-.146.721-.58 4.046-.663 5.185l2.5-.477a22.918 22.918 0 01.607-4.7 5.679 5.679 0 00-.252-.033 1.054 1.054 0 01-.44-.1v-.017c.005-.301.017-.487.017-.591zm34.486.3l-2.16 4.17 4.351.829a20.546 20.546 0 00-.628-4.547 6.919 6.919 0 01-1.562-.447zm-31.5 0a6.932 6.932 0 01-1.564.452 20 20 0 00-.617 4.544l4.34-.826zm35.532-9.9c-.587.292-14.377 7.146-14.4 7.2a14.692 14.692 0 014.124 2.921 12.625 12.625 0 012.787 4.191l7.492-14.308zm-39.569 0l7.491 14.308a12.623 12.623 0 012.786-4.188 14.714 14.714 0 014.12-2.921c-.02-.043-13.805-6.898-14.392-7.19zm61.618-3.806a1.461 1.461 0 01-.569 1 .65.65 0 01-.1.054l-.057.029c2.336 2.572 3.97 6.615 5.714 11.246a8.517 8.517 0 005.331 2.083 9.163 9.163 0 002-.238 35.658 35.658 0 00-4.844-13.12l-.009-.014v-.006a5.693 5.693 0 01-2.857-.892 43.166 43.166 0 00-.357-.2 1.72 1.72 0 01-.878.925 1.54 1.54 0 01-.6.112 7.24 7.24 0 01-2.769-.97zm-87.92-.057a6.73 6.73 0 00-.3.167l-.053.03a5.675 5.675 0 01-2.856.892v.009l-.006.011a35.644 35.644 0 00-4.846 13.12 9.293 9.293 0 002 .238 8.517 8.517 0 005.332-2.083c1.744-4.632 3.378-8.675 5.713-11.246l-.056-.028a.658.658 0 01-.1-.054 1.478 1.478 0 01-.57-1 7.246 7.246 0 01-2.778.98 1.538 1.538 0 01-.6-.112 1.714 1.714 0 01-.875-.915zm80.361 1.3a13.006 13.006 0 013.049 3.9l.238.426a29.368 29.368 0 012.522 6.849 8.662 8.662 0 005.172 1.813 10.85 10.85 0 001.471-.106c-.055-.158-.406-1.091-.555-1.482-1.863-4.946-3.476-8.924-5.85-11.362-.06 0-.122.005-.183.005a11.8 11.8 0 01-3.355-.752 1.136 1.136 0 01-.48.575 2 2 0 01-1.057.25 4.633 4.633 0 01-.967-.108zm-74.6.037c-2.371 2.436-3.985 6.414-5.849 11.362-.162.425-.5 1.333-.555 1.482a10.854 10.854 0 001.471.106 8.671 8.671 0 005.173-1.813 29.313 29.313 0 012.528-6.843l.237-.424a13.01 13.01 0 013.05-3.9 4.635 4.635 0 01-.97.115 2 2 0 01-1.056-.25 1.133 1.133 0 01-.481-.575 11.8 11.8 0 01-3.355.752c-.064.001-.126 0-.185-.004zm68.78-.331c.11.1.284.255.452.4.2.173.39.336.479.429a23.182 23.182 0 015.265 10.5l.069.305a9.164 9.164 0 004.929 1.49c-.036-.089-.13-.509-.28-1.25-.324-1.449-2.185-8.843-6.977-12.134a1.438 1.438 0 01-.743.97 1.922 1.922 0 01-.866.2 2.964 2.964 0 01-.933-.167 10.112 10.112 0 01-1.383-.735zm-60.852-.261c-4.789 3.288-6.653 10.685-6.978 12.134-.1.508-.234 1.138-.279 1.25a9.159 9.159 0 004.928-1.49l.07-.305a23.169 23.169 0 015.265-10.5c.088-.092.276-.255.476-.427.17-.146.345-.3.455-.4a10.2 10.2 0 01-1.394.739 2.962 2.962 0 01-.933.167 1.922 1.922 0 01-.866-.2 1.438 1.438 0 01-.736-.96zm57.723 1.12a.585.585 0 01-.493.393 13.687 13.687 0 013.153 4.527 41.623 41.623 0 011.966 5.709 2.189 2.189 0 001.68 1.381 10.539 10.539 0 002.621.245 37.45 37.45 0 01-.032-.3 10.268 10.268 0 00-.233-1.516c-1.606-6.07-3.752-8.785-5.831-10.816a2.393 2.393 0 01-1.689.474 7.653 7.653 0 01-1.134-.089zm-53.489-.381c-2.07 2.037-4.214 4.747-5.822 10.824a10.268 10.268 0 00-.233 1.521l-.031.3a10.523 10.523 0 002.621-.245 2.191 2.191 0 001.681-1.381 41.54 41.54 0 011.965-5.709 13.691 13.691 0 013.149-4.528.584.584 0 01-.493-.393 7.662 7.662 0 01-1.144.093 2.394 2.394 0 01-1.685-.474zm50.3.971l-.09.049-.67.37-.014.026a37.525 37.525 0 014.172 9.508 5.534 5.534 0 003.9 1.284 6.453 6.453 0 00-.2-1.052c-1.261-4.393-2.362-7.689-5.062-10.1-.038 0-.092.006-.161.012a7.99 7.99 0 01-.725.037 4.663 4.663 0 01-1.152-.133zm-46.326.083c-2.7 2.412-3.8 5.708-5.062 10.1a6.207 6.207 0 00-.2 1.052 5.53 5.53 0 003.9-1.284 37.544 37.544 0 014.173-9.508l-.014-.026-.76-.419a4.666 4.666 0 01-1.152.133c-.3 0-.556-.022-.725-.037-.068-.006-.122-.011-.161-.012zm45.156 1.169l-1.192 2.294a49.518 49.518 0 012.592 6.883 2.754 2.754 0 001.907.774 3.022 3.022 0 00.771-.1l-.176-.886a43.84 43.84 0 00-3.902-8.965zm-41.915 0a43.928 43.928 0 00-3.906 8.961l-.176.886a3.022 3.022 0 00.77.1 2.745 2.745 0 001.906-.774 49.577 49.577 0 012.594-6.883zm40.273 3.164l-1.464 2.827c.315.927.649 2.165.875 3.04a3.1 3.1 0 002.238.786 3.374 3.374 0 00.76-.08 32.883 32.883 0 00-2.409-6.573zm-38.638 0a32.562 32.562 0 00-2.409 6.573 3.374 3.374 0 00.759.08 3.106 3.106 0 002.239-.786c.225-.876.559-2.114.874-3.04zm36.675 3.791l-1.248 2.41a2.863 2.863 0 001.891.408h.019a12.21 12.21 0 00-.663-2.816zm-34.711 0a12.21 12.21 0 00-.663 2.816h.02a2.864 2.864 0 001.891-.408zm17.336-.739a13.21 13.21 0 013.717.533c.34.1.671.209.984.328l-2.71-18-1.981-13.146-1.98 13.143h.018l-2.711 18c.277-.105.57-.2.9-.3v-.012a13.212 13.212 0 013.762-.546zm7.131-4.587l-1.435 4.632 3.3-1.665zm-14.177 0l-1.911 2.967 3.3 1.665zm11.135-4.63l1.191 8.033c.28-.855 1.658-5.067 1.685-5.159l2.615 4.426.277-.143v-6.183l4.923 3.672 5.02-2.448a23.839 23.839 0 003.98-2.554c1.51-1.268 3.39-2.846 3.72-4.361a6.846 6.846 0 00-.094-1.538c-.2-1.7-.509-4.264.785-5.7a4.906 4.906 0 013.734-1.458 4.469 4.469 0 001.027-1.768 9.879 9.879 0 00-1.51-.122 7.455 7.455 0 00-1.6.167 5.55 5.55 0 00-2.762 1.391 8.559 8.559 0 00-2.38 5.137 8.423 8.423 0 01-1.833 3.626 8.95 8.95 0 01-3.192 2.34 3.813 3.813 0 01-1.221.19 5.053 5.053 0 01-1.1-.127 26.324 26.324 0 01-4.951-2.024c.179.331 3.484 5.569 3.625 5.792h-.011a13.589 13.589 0 01-3.014-.906 10.932 10.932 0 01-3.1-2.341 14.566 14.566 0 01-2.442-3.631l-.487 8.557c-.228-.228-.561-.553-.914-.9l-.009-.008c-.731-.703-1.554-1.506-1.963-1.959zm-10.975 2.873l1.638 5.159 1.2-8.033c-.6.669-2.76 2.8-2.835 2.872l-.537-8.557a14.583 14.583 0 01-2.442 3.631 10.927 10.927 0 01-3.1 2.341 13.713 13.713 0 01-3.027.907c.029-.045 3.449-5.466 3.627-5.8a26.344 26.344 0 01-4.949 2.032 5.059 5.059 0 01-1.1.127 3.805 3.805 0 01-1.219-.19 8.937 8.937 0 01-3.193-2.34 8.426 8.426 0 01-1.833-3.626 8.564 8.564 0 00-2.38-5.137 5.547 5.547 0 00-2.761-1.392 7.455 7.455 0 00-1.6-.167 9.882 9.882 0 00-1.511.122 4.468 4.468 0 001.028 1.768 4.906 4.906 0 013.733 1.458c1.295 1.436.988 4 .785 5.7a6.849 6.849 0 00-.094 1.537c.33 1.514 2.21 3.093 3.721 4.361a23.823 23.823 0 003.978 2.554l5.021 2.448 4.916-3.674v6.183l.277.143 2.658-4.426zm17.605-.057l-.083 3.944L74.827 80zm-21.4 0L47.148 80l3.223 1.645-.083-3.944zm34.637-2.391a31.28 31.28 0 01-1.014.708 3.285 3.285 0 00.647.064 1.738 1.738 0 00.934-.195c-.078-.071-.2-.195-.309-.315s-.207-.218-.258-.262zm-47.876 0c-.051.043-.152.149-.258.262s-.231.245-.31.316a1.744 1.744 0 00.934.195 3.288 3.288 0 00.647-.064 32.22 32.22 0 01-1.013-.709zm29.436-15.988c-.02.034-2.163 3.557-3.008 4.758l.4 2.667 1.019 6.79c.4.451.87.9 1.326 1.329.339.321.69.652 1.013.988l.462-10.1.706 1.547c1.494 3.983 3.972 6.705 6.976 7.664-.72-1.082-3.826-6.656-3.858-6.712l1.128.757a9.408 9.408 0 004.116 1.725c.081 0 .165.006.249.006a7.517 7.517 0 002.857-.653 7.6 7.6 0 01-4.6-3.029c-.087-.112-.236-.362-.368-.582-.09-.15-.166-.279-.21-.341a4.185 4.185 0 01-2.844-2.345 15.853 15.853 0 01-1.312-4.3 29.42 29.42 0 00-.427 3.089 10.661 10.661 0 00.427 4.5l-.815-.611c-1.973-1.471-3.03-3.811-3.237-7.147zm-12.207 6.439l.507 10.093c.306-.318.629-.632.942-.936a25.79 25.79 0 001.352-1.381l.9-6.024.514-3.434c-.833-1.178-2.9-4.575-3.007-4.757-.208 3.336-1.268 5.676-3.239 7.154l-.816.611a12.582 12.582 0 00.438-4.454 31.594 31.594 0 00-.432-3.138 13.932 13.932 0 01-1.41 4.213 4.755 4.755 0 01-2.615 2.36 9.625 9.625 0 01-1.048 1.427l-.009.008a10.721 10.721 0 01-4.262 2.584 7.552 7.552 0 002.858.653c.084 0 .168 0 .249-.006a9.411 9.411 0 004.122-1.724l1.131-.752c0 .006-.028.053-.074.135-1.168 2.09-3.213 5.723-3.782 6.577 3-.959 5.481-3.68 6.976-7.664zm33.239 7.091c-.309.288-.607.6-.9.9a14.64 14.64 0 01-1.15 1.115c.036.03.084.08.141.139s.149.154.239.236a2.32 2.32 0 001.428.337c.3 0 .537-.023.547-.024.225-.036.842-.194 1-.48a.3.3 0 000-.276 8.469 8.469 0 00-1.306-1.947zm-53.057 0a8.465 8.465 0 00-1.311 1.942.3.3 0 000 .276c.154.286.77.444.994.48.025 0 .25.024.547.024a2.321 2.321 0 001.428-.337c.09-.082.173-.167.239-.236s.105-.109.141-.138a14.611 14.611 0 01-1.149-1.116 21.443 21.443 0 00-.89-.895zm54.7-2.464a3.857 3.857 0 00-.131.283 5.4 5.4 0 01-1.064 1.67c.3.494.676.995.979 1.4.174.231.324.43.437.6a4.41 4.41 0 002.345 1.063 1.891 1.891 0 00.409-.049.9.9 0 00.551-.387.541.541 0 00.035-.463 19.223 19.223 0 00-3.56-4.117zm-56.348 0a18.983 18.983 0 00-3.563 4.112.542.542 0 00.036.463.9.9 0 00.55.386 1.886 1.886 0 00.409.049 4.409 4.409 0 002.344-1.063c.113-.166.261-.362.432-.59.3-.4.683-.907.983-1.4a5.414 5.414 0 01-1.054-1.671c-.052-.113-.094-.21-.136-.286zm56.315-1.524c.1.13.4.482.8.969v.005c1.058 1.272 2.822 3.388 3.39 4.172a7.25 7.25 0 002.932.87 1.3 1.3 0 00.665-.14.459.459 0 00.219-.435v-.1c-.37-1.392-2.514-3.821-3.759-5.146a3.556 3.556 0 01-1.4.166 9.9 9.9 0 01-2.846-.361zm-60.523.2c-1.244 1.321-3.387 3.746-3.755 5.146v.1a.459.459 0 00.218.435 1.306 1.306 0 00.665.14 7.253 7.253 0 002.927-.875c.568-.778 2.323-2.891 3.371-4.154v-.005c.4-.476.707-.852.812-.984a9.9 9.9 0 01-2.839.363 3.556 3.556 0 01-1.4-.166zm64.88-1.036c1.836 1.891 3.941 4.463 4.345 6.011a12.963 12.963 0 003.322.779 1.17 1.17 0 00.676-.158 1.033 1.033 0 00.307-.887c-.1-.882-1.711-2.7-3.044-4.065-1.469-1.507-2.9-2.782-2.9-2.786-.218.373-.78.571-1.623.571a8.376 8.376 0 01-1.756-.216c.087.091.236.263.367.414a4.092 4.092 0 00.308.34zm-67.7-1.1a63.014 63.014 0 00-2.9 2.785c-1.333 1.368-2.942 3.183-3.044 4.065a1.032 1.032 0 00.307.887 1.168 1.168 0 00.675.158 12.959 12.959 0 003.321-.779c.4-1.549 2.511-4.122 4.347-6.013a3.639 3.639 0 00.312-.343c.13-.151.277-.32.364-.411a8.389 8.389 0 01-1.757.216c-.844-.002-1.406-.2-1.624-.573zm75.6-1.264c3.179 2.6 5.41 5.589 5.821 7.787.222.115.424.227.576.311a4.993 4.993 0 002.756.812 1.661 1.661 0 00.889-.248c-.723-3.95-4.247-7.289-7.076-9.395a2.786 2.786 0 01-2.156.791 5.97 5.97 0 01-.808-.066zm-83.763-.732c-2.83 2.105-6.354 5.444-7.076 9.395a1.653 1.653 0 00.889.248 5.048 5.048 0 002.755-.812c.19-.106.383-.211.575-.311.412-2.2 2.643-5.182 5.823-7.787a5.971 5.971 0 01-.809.058 2.786 2.786 0 01-2.154-.799zm78.687 1.063a30.276 30.276 0 016.451 7.423 8.51 8.51 0 002.834 1.093.855.855 0 00.324-.057.9.9 0 00.59-.8c-.373-2.243-2.989-5.519-6.509-8.154.008-.008.015-.018.013-.023a.145.145 0 00-.064.04 2.746 2.746 0 01-1.968.608 14.038 14.038 0 01-1.668-.139zm-74.344-.525s0 .011.013.023c-3.519 2.633-6.135 5.91-6.51 8.154a.9.9 0 00.591.8.853.853 0 00.324.057 8.508 8.508 0 002.831-1.094 30.3 30.3 0 016.451-7.423 14.068 14.068 0 01-1.668.132 2.748 2.748 0 01-1.969-.608.146.146 0 00-.063-.041zm67.006-.472a9.07 9.07 0 00-.035 3.033 6.444 6.444 0 002.64.478c.6 0 1-.065 1.039-.165-.565-.581-3.139-2.954-3.644-3.346zm-55.965 0c-.508.393-3.078 2.766-3.644 3.347.036.1.443.165 1.039.165a6.441 6.441 0 002.64-.478 8.946 8.946 0 00-.035-3.034zm57.424-2.2a2.892 2.892 0 00-.718.6 3.222 3.222 0 00-.518.866c.519.389 1.26 1.025 2.086 1.791a9.392 9.392 0 003.324.71c.515 0 .893-.081.964-.207l-1.539-1.463a16.67 16.67 0 00-3.6-2.3zm-58.883 0a16.683 16.683 0 00-3.6 2.3c-1.535 1.458-1.537 1.462-1.538 1.463.071.125.449.207.964.207a9.392 9.392 0 003.324-.71c.83-.77 1.571-1.406 2.086-1.791a3.262 3.262 0 00-.518-.866 2.9 2.9 0 00-.715-.603zm61.481-.607a6.219 6.219 0 00-1.707.223 23.573 23.573 0 013.876 2.687 10.523 10.523 0 002.63.344 2.31 2.31 0 001.545-.356 15.34 15.34 0 00-6.344-2.898zm-64.079 0a15.339 15.339 0 00-6.343 2.9 2.307 2.307 0 001.544.356 10.52 10.52 0 002.63-.344 23.623 23.623 0 013.876-2.693 6.218 6.218 0 00-1.707-.223zm43.001-9.681a14.115 14.115 0 00-4.78 5.642c.012 3.223.74 5.539 2.226 7.079a20.722 20.722 0 01.116-3.7 48.66 48.66 0 011.228-5.921c0 .022.059.543.1.961v.04c.047.438.095.892.1.913.464 3.181 1.264 6.931 3.341 7.7a13.207 13.207 0 01-.867-5.08 6.85 6.85 0 01-1.587-3.622 17.037 17.037 0 01.123-4.012zm-20.708 3.1a66.606 66.606 0 011.322 6.556 14.611 14.611 0 01.013 3.066c1.485-1.54 2.214-3.856 2.226-7.079a14.125 14.125 0 00-4.78-5.643 13.964 13.964 0 01.167 3.682 6.632 6.632 0 01-1.628 3.953c-.006.229-.009.448-.013.659a10.669 10.669 0 01-.734 4.341c2.009-1.044 2.756-4.44 3.221-7.624 0-.025.068-.626.124-1.156l.08-.756zm43.383 4.256a4.674 4.674 0 01-.883 1.72 17.446 17.446 0 016.1 2.953l.212.07a7.044 7.044 0 002.133.392 2.15 2.15 0 001.564-.5 32.519 32.519 0 00-9.127-4.637zm-67.271 0a32.53 32.53 0 00-9.13 4.635 2.151 2.151 0 001.564.5 7.036 7.036 0 002.133-.392l.211-.07a17.464 17.464 0 016.106-2.953 4.683 4.683 0 01-.883-1.72zm28.176-7.528v5.632c.3.5 2.444 3.887 3.154 4.882l1.266-8.456c-.5-.223-1.621-.75-2.128-1-.748-.378-1.522-.764-2.293-1.06zm10.918 0c-.767.295-1.542.682-2.292 1.057-.526.262-1.542.735-2.131.993l1.267 8.448c.723-1.01 2.887-4.414 3.156-4.865zm6.5-1.167l-.146.722a18.16 18.16 0 00-.3 3.86 6.382 6.382 0 001.038 3.407 14.411 14.411 0 011.651-4.859c-.494-1.2.136-2.239 1.011-3.467l.048-.072a10 10 0 00.118-.167l.1-.144V48.61l.038-.077a12.118 12.118 0 001.2-3.874 2.984 2.984 0 01-1.821-.851 1.9 1.9 0 01-.237.336 8.219 8.219 0 01-3.626 1.9 36.1 36.1 0 01-5.284 1.166h.012l-.027.047c-.687 1.153-2.988 4.988-3.76 5.915.295-.143.579-.282.867-.426l.026-.013a22.611 22.611 0 012.836-1.255l.476-.157v5.327a12.826 12.826 0 015.116-5.151l.662-.328zm-26.843-7.37a2.978 2.978 0 01-1.833.863 12.106 12.106 0 001.2 3.874l.038.077v1.84l.1.144.03.042.024.034a8.893 8.893 0 011.095 1.809 2.3 2.3 0 01.03 1.819 14.4 14.4 0 011.651 4.859 7.13 7.13 0 001.036-3.409 19.87 19.87 0 00-.45-4.582l.662.329a12.821 12.821 0 015.116 5.151v-5.329l.476.157a22.683 22.683 0 012.849 1.261l.014.007c.286.143.578.286.867.426-.875-1.054-3.76-5.914-3.785-5.963h.025a36.024 36.024 0 01-5.276-1.16 8.216 8.216 0 01-3.623-1.9 2.155 2.155 0 01-.245-.351zm34.445 8.342h.016a4.654 4.654 0 013.089 1 7.435 7.435 0 011.917 2.821 7.407 7.407 0 00.266-4.625c-.512-2.043-3.336-2.348-4.974-2.348a16.674 16.674 0 00-2.58.213l-1.166 1.577-.165.231-.035.048-.027.038c-.8 1.119-1.272 1.852-1.136 2.605a7.637 7.637 0 014.65-1.56h.06zm-39.441-3.148c-1.638 0-4.462.305-4.974 2.348a7.407 7.407 0 00.265 4.625 7.439 7.439 0 011.919-2.823 4.653 4.653 0 013.092-1h.011a7.671 7.671 0 014.8 1.566c.136-.754-.339-1.487-1.138-2.6l-.029-.041-.031-.045-.166-.231-1.168-1.584a16.677 16.677 0 00-2.581-.215zm19.879-1.516l.888 6.037a38 38 0 002.713-4.241l.308-.526.341-.586c.167-.288.339-.586.452-.776l-4.7.089c.044-.025 5.122-2.938 6.615-4a21.878 21.878 0 01-3.955-.666c.3-.138 1.375-.527 2.01-.723-1.745.1-3.528.1-4.486.1h-.368c-1.571 0-3.055 0-4.407-.074l.019.011c.811.315 1.884.684 1.895.688a16.184 16.184 0 01-3.955.663c1.516 1.08 6.614 4 6.632 4l-4.78-.185.813 1.376.073.123.259.442.014.024a41.045 41.045 0 002.714 4.26zm19.887.79a9.163 9.163 0 013.509.586 3.456 3.456 0 012.066 2.027c5.048-.058 8.668-1.756 10.757-5.047-.357.167-.69.326-1.012.481a13.669 13.669 0 01-4.036 1.461 19 19 0 01-2.341.1c-2.417 0-6-.205-6.355-.539l-.048.016c-.773.254-2.174.71-2.873.915.115.001.225-.001.333-.001zm-56.11-2.433c2.091 3.291 5.71 4.99 10.757 5.047a3.459 3.459 0 012.07-2.028 9.161 9.161 0 013.508-.586h.329c-.885-.26-2.9-.924-2.922-.931-.349.334-3.936.539-6.354.539a19.017 19.017 0 01-2.342-.1 13.677 13.677 0 01-4.036-1.461c-.325-.155-.653-.315-1.01-.481zm59.985-6.593a21.724 21.724 0 01-3.107 1.367c-.62 1.751-1.891 3.762-3.213 4.039a12.565 12.565 0 01-1.236 4.136v.688zm-47.531 0l7.561 10.227v-.688a12.549 12.549 0 01-1.23-4.135c-1.325-.277-2.594-2.288-3.213-4.039a21.641 21.641 0 01-3.114-1.364zm49.337-.085a5.45 5.45 0 00-.888.06l-6.5 8.792c1.088-.423 4.419-1.476 4.452-1.487a14.529 14.529 0 001.643-.711 9.21 9.21 0 014.048-1.165h.16a2.888 2.888 0 011.958.653 1.42 1.42 0 01.434.567c.489-1.861.876-5.133-2.035-6.13a10.181 10.181 0 00-3.268-.578zm-54.028 5.488h.133a9.216 9.216 0 014.049 1.164 14.409 14.409 0 001.643.711c.137.043 3.367 1.064 4.452 1.487l-6.5-8.792a3.635 3.635 0 00-1.112-.141 8.279 8.279 0 00-3.047.657 3.752 3.752 0 00-2.116 2.056 5.65 5.65 0 00.127 4.256 2.228 2.228 0 01.463-.67 2.556 2.556 0 011.908-.728zm-.008.721a2.057 2.057 0 00-1.466.5 6.13 6.13 0 00-.471.615c-.065.093-.286.471-.387.658h.068c2.159 0 5.773 0 7.175-.189-.374-.159-.73-.332-1.045-.484a8.487 8.487 0 00-3.754-1.094zm42.7-2.964c-1.671.374-3.442.667-5.493 1.006h-.024l-1.086.18c-1.312.872-3.257 1.976-6.122 3.475l1.32-.12a27.213 27.213 0 006.92-1.142 10.116 10.116 0 004.3-2.185 1.133 1.133 0 00.275-.749 2.229 2.229 0 01-.085-.464zm-28.472 0a2.156 2.156 0 01-.109.52v.019a.157.157 0 010 .036.944.944 0 00.311.642c.633.726 2.2 1.48 4.416 2.122a33.852 33.852 0 006.77 1.2l1.319.125a49.615 49.615 0 01-6.13-3.474l-.96-.159-.049-.008c-2.066-.345-3.866-.642-5.566-1.022zm33.943-1.47c-1.364.448-2.965.887-4.757 1.305a2.012 2.012 0 002.146 1.727c.835 0 1.908-1.247 2.611-3.032zm-39.415 0c.7 1.785 1.775 3.032 2.61 3.032a2.012 2.012 0 002.147-1.727zm41.048-4.863h-.008c-.3.006-3.2 1.216-6.549 2.618-3.721 1.555-7.938 3.318-9.882 3.971a8.137 8.137 0 001.944.215 14.188 14.188 0 002.346-.215c7.127-1.221 11.427-2.456 14.376-4.13-.142-.964-1.601-2.459-2.227-2.459zm-42.851-.026c-.958 0-1.9 1.507-2.047 2.484 2.976 1.689 7.272 2.928 14.365 4.143a19.177 19.177 0 002.477.19 6.828 6.828 0 001.807-.2c-.106-.035-.208-.07-.319-.11-1.912-.674-5.381-2.13-8.735-3.538-3.58-1.5-6.961-2.922-7.472-2.963zm21.4 3.963a62.251 62.251 0 00-8.259.558l1.458.6a45.231 45.231 0 006.733.3h.368a44.224 44.224 0 006.934-.334l1.347-.55a60.624 60.624 0 00-8.287-.572h-.3zm.184-.722h.113a60.762 60.762 0 019.591.759l.693-.283v-1.684a2.311 2.311 0 01-2.815-.93 2.144 2.144 0 110-2.443 2.083 2.083 0 01.181-.25 2.144 2.144 0 01-.52-1 10.018 10.018 0 00-5.008 1.4 2.424 2.424 0 01.264 1.1 2.458 2.458 0 01-4.915 0 2.425 2.425 0 01.215-1 10.052 10.052 0 00-5.185-1.5 2.146 2.146 0 01-.345.783 2.306 2.306 0 01.378.612 2.144 2.144 0 11-.089 1.979 2.321 2.321 0 01-2.046 1.23h-.076a2.572 2.572 0 01-.817-.167c-.057-.019-.11-.038-.16-.052v1.871l.788.321a62.447 62.447 0 019.585-.744h.167zm.044-4.982a1.643 1.643 0 00-1.163.479l-.014.015a1.634 1.634 0 00-.475 1.153 1.652 1.652 0 101.652-1.647zm8.37.63a1.492 1.492 0 00-.379.987 1.516 1.516 0 003.032 0 1.5 1.5 0 00-.527-1.132 2.142 2.142 0 01-2.127.145zm-2.6-.351a1.342 1.342 0 101.344 1.343 1.346 1.346 0 00-1.34-1.343zm-11.312 0a1.342 1.342 0 101.347 1.343 1.344 1.344 0 00-1.344-1.343zm-5.17.216a1.491 1.491 0 00-.338.894 1.517 1.517 0 001.466 1.562h.049a1.51 1.51 0 001.516-1.464 1.489 1.489 0 00-.341-.992 2.144 2.144 0 01-2.352 0zm-1.224 1.4a3.031 3.031 0 01.194.251 2.279 2.279 0 01.449-2.211 2.184 2.184 0 01-.264-.506 1.842 1.842 0 01-1.868.209c.431.734.918 1.473 1.489 2.258zm23.259-2.465a2.114 2.114 0 01-.252.491 2.282 2.282 0 01.753 1.7v.104c.446-.621.861-1.25 1.234-1.869.042-.063.086-.135.132-.212a1.849 1.849 0 01-1.862-.212zm-2.021-2.068a1.342 1.342 0 101.347 1.34 1.346 1.346 0 00-1.344-1.342zm-18.836 0a1.342 1.342 0 101.345 1.341 1.346 1.346 0 00-1.342-1.343zm4.162-1.442l-2.379 1.587a2.137 2.137 0 01.35.925 10.911 10.911 0 015.55 1.609 2.464 2.464 0 011.026-.7l.009-.006c-4.26-5.208-9.153-8.357-13.778-8.866l6.522 4.14-3.9.848a2.451 2.451 0 001.081.459 13.562 13.562 0 001.75.063c1.582 0 3.679-.06 3.767-.063zm19.739-5.448c-4.6.508-9.482 3.638-13.734 8.813a2.453 2.453 0 011.137.674 10.9 10.9 0 015.4-1.53 2.141 2.141 0 01.351-.927l-2.378-1.583c.035 0 2.072.066 3.677.066a15.417 15.417 0 001.842-.066c.913-.147 1.079-.456 1.081-.459l-3.894-.853zm-1.929 6.435a1.047 1.047 0 101.051 1.048 1.051 1.051 0 00-1.051-1.048zm-25.1 0a1.047 1.047 0 101.053 1.048 1.05 1.05 0 00-1.055-1.048zm12.18-3.259l.364 4.654.363-4.654zm2.54.13l-1.177 4.1h.006c.467-.532 1.3-1.392 2.486-2.553l.123-.121zm-4.343 0l-1.439 1.429a33.37 33.37 0 012.613 2.673zm-13.02 1.27a14.358 14.358 0 00.829 2.521 1.848 1.848 0 01.433-.847zm30.377.013l-1.251 1.66a1.865 1.865 0 01.43.837 14.214 14.214 0 00.82-2.5zm-5.143 1.588a2.158 2.158 0 01.847.491 1.877 1.877 0 01.589-.7h-.006a2.839 2.839 0 01-.543.17 4.688 4.688 0 01-.676.04 1.663 1.663 0 01-.211-.001zm-21.519-.2a1.872 1.872 0 01.591.691 2.161 2.161 0 01.929-.51h-.273a4.94 4.94 0 01-.719-.039 3.192 3.192 0 01-.528-.146zm2.619.188a2.115 2.115 0 01.711.341l.5-.335zm17.716 0l-1.214.006.5.335a2.137 2.137 0 01.718-.345zm3.694-.535a1.831 1.831 0 01.8.184l1.248-1.657-2.688-.673 3.633-2.9v-.398L70.8 28.61l3.734.9c-.108.1-.993.883-1 .9zm-28.1-5.449v.067c0 .109-.005.221 0 .336l3.639 2.9-2.687.673 1.247 1.657a1.832 1.832 0 01.8-.184c0-.012-.463-.53-.858-.971l3.544-.874zm20.428 2.71l-.339 1.036c.231-.193.468-.383.768-.616zm-9.765 0l-.422.42c.23.18.5.391.767.616zm7.747-2.016l-.467 1.633 1.387 1.38.525-1.573zm-5.732 0l-1.444 1.44.524 1.573 1.388-1.38zm-12.643.66c0 .067.008.134.011.2 0 .1.009.193.018.293a11.412 11.412 0 00.111 1.576l1.867-.468zm31.019 0l-2 1.6 1.861.466a11.529 11.529 0 00.11-1.574c.009-.1.014-.2.019-.293 0-.063.006-.126.011-.191zm-9.6-1.732l-.773 2.313.747.746h.006l.078-.055.026-.018.9-2.132-.979-.854zm-11.824 0l-.98.854.895 2.125.055.039.056.04.748-.746-.773-2.313zm5.383-1.76l-.533 2.137.533 2.138h1.064l.533-2.133-.532-2.137h-1.062zm7.997 3.121l-.352.87c.3-.19.557-.349.8-.489l-.444-.381zm-14.931 0l-.436.381c.248.145.508.305.8.489l-.359-.87zm11.185-3.265l-.626 2.184 1.472 1.468.753-2.259zm-7.439 0l-1.6 1.394.754 2.259 1.472-1.469zm12.3.556l-.827 2 .826.71c.159-.085.321-.164.478-.24l.074-.036.565-1.326zm-17.169 0l-1.116 1.112.565 1.322.065.032c.161.078.327.16.49.246l.824-.708-.829-2zm18.838 1.665l-.126.314.094-.039.222-.091h-.005zm-20.507 0l-.185.184c.074.029.15.06.223.091l.092.038-.132-.314zm21.74-2.94l-.928 2.219.637.629c.338-.117.7-.227 1.064-.328l.553-1.293-1.326-1.227zm-22.965 0l-1.326 1.228.551 1.292c.35.093.71.2 1.068.327l.635-.627-.928-2.219zm18.4-.388l-.752 2.274 1.022.892.849-2.056-1.112-1.11zm-13.838 0l-1.114 1.11.849 2.056 1.022-.892zm20.293 2.143l-.234.559.069-.014c.208-.042.422-.086.632-.119zm-26.743 0l-.461.426c.21.033.425.077.633.119l.069.014-.24-.559zm28.012-2.959l-.968 2.251 1.1 1.021h.006c.221-.018.444-.024.661-.031h.054a8.813 8.813 0 00-.853-3.241zm-29.282 0a8.8 8.8 0 00-.856 3.239h.051c.22.007.447.013.67.031l1.1-1.021zm16.656.569l-.807 1.209.346 1.389zm-4.024 0l.462 2.6.346-1.389zm11.774-.954l-.885 2.14 1.118 1.116.915-2.191zm-19.534 0l-1.15 1.065.916 2.191 1.121-1.112zm14.447-1.034l-.739 2.578 1.629 1.42.779-2.329zm-9.354 0l-1.67 1.665.778 2.329 1.633-1.416zm17.558-.722l-1.1 2.637 1.332 1.235 1.074-2.5a6.547 6.547 0 00-.539-.675 6.4 6.4 0 00-.765-.7zm-25.763 0a6.409 6.409 0 00-.765.7 6.336 6.336 0 00-.537.675l1.074 2.5 1.331-1.235zm11.707.464l-.489 1.462 1.047 1.567h1.241l1.046-1.567-.489-1.462h-2.357zm9.074-.438l-.725 2.167 1.155 1.152.873-2.112-1.3-1.207zm-15.8 0l-1.3 1.207.872 2.112 1.155-1.152zm18.844-1.119l-.879 2.137 1.151 1.068 1.063-2.543a8.511 8.511 0 00-1.335-.662zm-21.887 0a8.523 8.523 0 00-1.333.662l1.063 2.543 1.152-1.068-.882-2.138zm16.408-.939l-.561 1.96 1.7 1.694.714-2.137-1.63-1.507h-.107c-.033 0-.075-.009-.116-.01zm-10.932 0h-.222l-1.626 1.517.713 2.137 1.7-1.694zm8.015 1.732l-.683.526.385 1.149zm-5.089 0l.3 1.675.385-1.149zm11.038-1.467l-.347 1.041 1.345 1.247.77-1.868a12.9 12.9 0 00-1.769-.42zm-16.994 0a12.944 12.944 0 00-1.77.42l.771 1.868 1.346-1.247zm8.493-.857l-1.3.023-1.16 1.453 1.153.89h2.627l1.153-.89-1.157-1.452-1.3-.023zm6.8.647l.768.711.2-.609c-.335-.042-.64-.079-.971-.1zm-13.6 0a20.19 20.19 0 00-.971.1l.2.609zm9.959-1.745l-1.112.749.788 1.073zm-6.3 0l.32 1.822.8-1.077zm1.276-2.057l-.943 1.414 1.486.988h2.657l1.487-.988-.941-1.414zm4.613 0l.613.918.163-.918h-.775zm-6.257 0l.163.918.615-.918h-.775z" fill="#0b0b09"/></svg>