<svg xmlns="http://www.w3.org/2000/svg" width="441" height="17.578"><g data-name="Group 1"><path data-name="Line Copy" d="M.5 8.5h440" fill="none" stroke="#e1c989" stroke-linecap="square" stroke-miterlimit="10" opacity=".2"/><g fill="#ded0ab" data-name="Group 4"><path data-name="Fill 1" d="M204.4 13.373c5.051 4.53 12.225 1.743 16.378-2.588 2.572-2.682 4.286-6.669 8.182-7.655 4.012-1.014 8.388 2 7.905 6.356a6.075 6.075 0 01-1.4 3.072 5.246 5.246 0 01-7.847-.306 5.565 5.565 0 006.56 2.135 6.5 6.5 0 003.892-6.96 7.58 7.58 0 00-5.2-5.906 8.892 8.892 0 00-8.392 1.913c-2.078 1.748-3.419 4.257-5.297 6.205a16.91 16.91 0 01-4.592 3.4c-4.4 2.035-11.281.742-11.61-5.165.013-3.392 3.312-6.459 6.769-5.078a5.082 5.082 0 00-5.231.453A5.77 5.77 0 00202 7.896a7.632 7.632 0 002.4 5.477c.1.088-.094-.092 0 0"/><path data-name="Fill 2" d="M229.78.037c-4.488-.4-8.649 2.424-11.532 5.61-1.6 1.765-2.855 4-4.977 5.2-1.888 1.072-4.668.94-5.54-1.4a2.785 2.785 0 01-.148-1.125 2.73 2.73 0 00-.036 1.183c.561 2.708 3.739 3.254 5.931 2.315 2.373-1.02 3.822-3.22 5.448-5.097C221.983 3.2 226.068.076 230.944.216a7.757 7.757 0 00-1.164-.179c-.756-.066.19.012 0 0"/><path data-name="Fill 3" d="M230.457 4.945c.283-.151.6-.252.891-.375a12.42 12.42 0 00-6.323 3.414c-2.387 2.23-4.125 5.153-6.787 7.086a10.051 10.051 0 01-6.8 2.2c3.9 1.134 7.689-1.074 10.3-3.832 2.789-2.946 4.876-6.748 8.719-8.5.138-.073-.563.256 0 0"/></g></g></svg>