<svg xmlns="http://www.w3.org/2000/svg" width="32.227" height="15.625"><g fill="#ded0ab"><path d="M2.14 11.887c4.5 4.027 10.9 1.549 14.607-2.3 2.294-2.384 3.823-5.928 7.3-6.8 3.578-.9 7.481 1.78 7.05 5.65a5.392 5.392 0 01-1.252 2.731 4.689 4.689 0 01-7-.272 4.972 4.972 0 005.851 1.9 5.773 5.773 0 003.471-6.187 6.745 6.745 0 00-4.638-5.257 7.951 7.951 0 00-7.485 1.7C18.19 4.606 17 6.837 15.324 8.568a15.078 15.078 0 01-4.1 3.024c-3.918 1.809-10.057.66-10.351-4.591.012-3.017 2.954-5.743 6.038-4.515a4.546 4.546 0 00-4.665.4A5.124 5.124 0 000 7.019a6.774 6.774 0 002.14 4.868c.087.078-.084-.082 0 0"/><path d="M24.777.033c-4-.352-7.714 2.155-10.285 4.987-1.425 1.569-2.547 3.552-4.44 4.624-1.684.956-4.163.835-4.941-1.244a2.468 2.468 0 01-.132-1 2.419 2.419 0 00-.032 1.049c.5 2.407 3.335 2.892 5.29 2.058 2.116-.9 3.4-2.859 4.859-4.531C17.823 2.843 21.466.068 25.815.192a6.94 6.94 0 00-1.038-.159c-.674-.059.169.011 0 0m.604 4.362c.252-.134.531-.224.795-.333a11.089 11.089 0 00-5.639 3.035c-2.124 1.982-3.679 4.58-6.055 6.3a8.984 8.984 0 01-6.064 1.957c3.482 1.008 6.858-.955 9.186-3.406 2.487-2.619 4.349-6 7.776-7.553.123-.065-.5.228 0 0"/></g></svg>