<svg xmlns="http://www.w3.org/2000/svg" xmlns:xlink="http://www.w3.org/1999/xlink" width="68.571" height="83.765" viewBox="0 0 68.571 83.765"><defs><clipPath id="a"><path d="M0,0H68.571V83.765H0Z" fill="none"/></clipPath></defs><path d="M10.682,5.667,0,0,5.47,11.2a10.639,10.639,0,0,1,5.212-5.535" transform="translate(19.172 27.477)" fill="#d0dce7"/><path d="M0,7.393,20.4,3.768.238,0A10.851,10.851,0,0,1,.773,3.367,10.83,10.83,0,0,1,0,7.393" transform="translate(43.931 39.452)" fill="#d0dce7"/><path d="M7.573,27.512,3.65,0,0,27.326a10.216,10.216,0,0,1,7.573.186" transform="translate(30.711 5.453)" fill="#d0dce7"/><path d="M5.032,11.1,10.654,0,0,5.555A10.648,10.648,0,0,1,5.032,11.1" transform="translate(38.9 27.699)" fill="#d0dce7"/><path d="M5.838,0,0,11.135,11.257,5.273A10.609,10.609,0,0,1,5.838,0" transform="translate(19 47.405)" fill="#d0dce7"/><path d="M0,0,3.656,25.575,7.2.013A10.188,10.188,0,0,1,3.615.661,10.184,10.184,0,0,1,0,0" transform="translate(30.65 52.836)" fill="#d0dce7"/><path d="M0,5.407l10.86,5.947L5.308,0A10.621,10.621,0,0,1,0,5.407" transform="translate(38.484 47.175)" fill="#d0dce7"/><path d="M9.693,19.835A9.819,9.819,0,0,1,0,9.917,9.818,9.818,0,0,1,9.693,0a9.818,9.818,0,0,1,9.693,9.917A9.818,9.818,0,0,1,9.693,19.835ZM9.727.873,1.955,14.842H17.428Z" transform="translate(24.571 32.901)" fill="#e7792b"/><path d="M12.918,11.661,6.489,0,0,11.661Z" transform="translate(27.807 35.321)" fill="#0065a3"/><path d="M19.671,3.589A10.847,10.847,0,0,1,20.28,0L0,3.791,20.428,7.574a10.827,10.827,0,0,1-.757-3.985" transform="translate(4.154 39.229)" fill="#d0dce7"/><path d="M0,0H68.571V83.765H0Z" fill="none"/></svg>