<svg xmlns="http://www.w3.org/2000/svg" width="32.227" height="15.625" viewBox="0 0 32.227 15.625"><g transform="translate(0 0)"><path d="M2.14,10.86c4.5,4.027,10.9,1.549,14.607-2.3,2.294-2.384,3.823-5.928,7.3-6.8,3.578-.9,7.481,1.78,7.05,5.65a5.392,5.392,0,0,1-1.252,2.731,4.689,4.689,0,0,1-7-.272,4.972,4.972,0,0,0,5.851,1.9,5.773,5.773,0,0,0,3.471-6.187A6.745,6.745,0,0,0,27.529.325a7.951,7.951,0,0,0-7.485,1.7C18.19,3.579,17,5.81,15.324,7.541a15.078,15.078,0,0,1-4.1,3.024C7.306,12.374,1.167,11.225.873,5.974.885,2.957,3.827.231,6.911,1.459a4.546,4.546,0,0,0-4.665.4A5.124,5.124,0,0,0,0,5.992,6.774,6.774,0,0,0,2.14,10.86c.087.078-.084-.082,0,0" transform="translate(0 1.027)" fill="#ded0ab"/><path d="M19.872.033c-4-.352-7.714,2.155-10.285,4.987C8.162,6.589,7.04,8.572,5.147,9.644,3.463,10.6.984,10.479.206,8.4A2.468,2.468,0,0,1,.074,7.4,2.419,2.419,0,0,0,.042,8.449c.5,2.407,3.335,2.892,5.29,2.058,2.116-.9,3.4-2.859,4.859-4.531C12.918,2.843,16.561.068,20.91.192A6.94,6.94,0,0,0,19.872.033c-.674-.059.169.011,0,0" transform="translate(4.905 0)" fill="#ded0ab"/><path d="M16.963.333c.252-.134.531-.224.795-.333a11.089,11.089,0,0,0-5.639,3.035c-2.124,1.982-3.679,4.58-6.055,6.3A8.984,8.984,0,0,1,0,11.292c3.482,1.008,6.858-.955,9.186-3.406,2.487-2.619,4.349-6,7.776-7.553.123-.065-.5.228,0,0" transform="translate(8.418 4.062)" fill="#ded0ab"/></g></svg>