<svg xmlns="http://www.w3.org/2000/svg" width="441" height="17.578" viewBox="0 0 441 17.578">
  <g id="Group_1" data-name="Group 1" transform="translate(-182 0)">
    <path id="Line_Copy" data-name="Line Copy" d="M.5.5h440" transform="translate(182 8)" fill="none" stroke="#e1c989" stroke-linecap="square" stroke-miterlimit="10" stroke-width="1" opacity="0.2"/>
    <g id="Group_4" data-name="Group 4" transform="translate(384)">
      <g id="Group">
        <path id="Fill_1" data-name="Fill 1" d="M2.4,12.218c5.051,4.53,12.225,1.743,16.378-2.588,2.572-2.682,4.286-6.669,8.182-7.655,4.012-1.014,8.388,2,7.905,6.356a6.075,6.075,0,0,1-1.4,3.072,5.246,5.246,0,0,1-7.847-.306,5.565,5.565,0,0,0,6.56,2.135,6.5,6.5,0,0,0,3.892-6.96,7.58,7.58,0,0,0-5.2-5.906,8.892,8.892,0,0,0-8.392,1.913C20.4,4.027,19.059,6.536,17.181,8.484a16.91,16.91,0,0,1-4.592,3.4c-4.4,2.035-11.281.742-11.61-5.165C.992,3.327,4.291.26,7.748,1.641a5.082,5.082,0,0,0-5.231.453A5.77,5.77,0,0,0,0,6.741a7.632,7.632,0,0,0,2.4,5.477c.1.088-.094-.092,0,0" transform="translate(0 1.155)" fill="#ded0ab"/>
        <path id="Fill_2" data-name="Fill 2" d="M22.28.037c-4.488-.4-8.649,2.424-11.532,5.61-1.6,1.765-2.855,4-4.977,5.2-1.888,1.072-4.668.94-5.54-1.4A2.785,2.785,0,0,1,.083,8.322,2.73,2.73,0,0,0,.047,9.505c.561,2.708,3.739,3.254,5.931,2.315C8.351,10.8,9.8,8.6,11.426,6.723,14.483,3.2,18.568.076,23.444.216A7.757,7.757,0,0,0,22.28.037c-.756-.066.19.012,0,0" transform="translate(5.5 0)" fill="#ded0ab"/>
        <path id="Fill_3" data-name="Fill 3" d="M19.019.375c.283-.151.6-.252.891-.375a12.42,12.42,0,0,0-6.323,3.414C11.2,5.644,9.462,8.567,6.8,10.5A10.051,10.051,0,0,1,0,12.7c3.9,1.134,7.689-1.074,10.3-3.832,2.789-2.946,4.876-6.748,8.719-8.5.138-.073-.563.256,0,0" transform="translate(9.438 4.57)" fill="#ded0ab"/>
      </g>
    </g>
  </g>
</svg>
